<?xml version="1.0" standalone="no"?>
<!DOCTYPE svg PUBLIC "-//W3C//DTD SVG 1.1//EN" "http://www.w3.org/Graphics/SVG/1.1/DTD/svg11.dtd" >
<svg xmlns="http://www.w3.org/2000/svg">
<metadata></metadata>
<defs>
<font id="tvsansscreen-regularregular" horiz-adv-x="1323" >
<font-face units-per-em="2048" ascent="1470" descent="-578" />
<missing-glyph horiz-adv-x="552" />
<glyph unicode="&#xd;" horiz-adv-x="681" />
<glyph unicode=" "  horiz-adv-x="552" />
<glyph unicode="&#x09;" horiz-adv-x="552" />
<glyph unicode="&#xa0;" horiz-adv-x="552" />
<glyph unicode="!" horiz-adv-x="737" d="M233 108q0 62 31 92t106 29q74 1 104 -29t30 -92t-30 -92t-104 -28q-74 0 -106 30q-31 30 -31 90zM256 1430h225l-32 -994h-158z" />
<glyph unicode="&#x22;" horiz-adv-x="837" d="M125 1460h217l-47 -555h-123zM498 1460h215l-45 -555h-125z" />
<glyph unicode="#" horiz-adv-x="1458" d="M70 383v137h243l133 365h-249v139h299l155 424l137 -45l-137 -379h389l156 424l137 -45l-137 -379h193v-139h-244l-131 -365h248v-137h-299l-154 -426l-139 45l137 381h-389l-154 -426l-139 45l137 381h-192zM469 520h389l133 365h-391z" />
<glyph unicode="$" horiz-adv-x="1245" d="M111 987q0 188 115 287q116 98 315 110v234h166v-236q168 -14 364 -73l-22 -168q-213 69 -393 69t-256 -47q-74 -47 -74 -170t160 -176q71 -23 157 -41q212 -44 331 -108q71 -39 116 -115t45 -184q0 -183 -117 -281t-311 -115v-239h-166v237q-223 16 -428 99l22 166 q243 -90 433 -90t271 46q81 48 81 170q0 78 -60 126t-150 66q-88 18 -194 48q-106 29 -195 63t-150 116q-60 83 -60 206z" />
<glyph unicode="%" horiz-adv-x="1941" d="M152 988q0 181 89 290q89 108 249 108t248 -108q89 -108 89 -290q0 -181 -89 -290q-89 -108 -249 -108q-161 0 -249 108t-88 290zM301 8l1227 1434l112 -94l-1226 -1434zM328 989q0 -125 44 -195t118 -69q74 0 117 69q44 68 44 194t-44 195t-117 69q-74 0 -118 -70 q-44 -68 -44 -193zM1114 368q0 182 89 290t249 108t249 -109t89 -289t-89 -290q-89 -109 -249 -109t-249 109t-89 290zM1290 369q0 -125 44 -195t118 -70t118 69t44 195t-44 194t-117 69q-73 -1 -118 -69t-45 -193z" />
<glyph unicode="&#x26;" horiz-adv-x="1404" d="M90 412q0 111 58 214t169 177q-98 119 -98 257t110 232q109 94 311 94t398 -122l-69 -146q-178 94 -330 94q-101 0 -155 -45t-54 -125t117 -192l444 -404q74 152 99 316l184 -39q-41 -231 -139 -406l221 -200l-129 -148l-209 189q-178 -188 -424 -188t-375 128 q-129 129 -129 314zM303 418q0 -119 75 -196q76 -77 224 -77t279 138l-435 395q-143 -96 -143 -260z" />
<glyph unicode="'" horiz-adv-x="466" d="M125 1460h217l-47 -555h-123z" />
<glyph unicode="(" horiz-adv-x="849" d="M152 678q0 311 158 563q159 252 421 401l86 -129q-205 -123 -333 -343t-128 -492t127 -492t334 -344l-86 -129q-262 150 -421 402t-158 563z" />
<glyph unicode=")" horiz-adv-x="849" d="M33 -158q207 124 335 344t128 492t-128 491t-335 344l86 129q262 -150 422 -402q159 -252 159 -562q0 -311 -160 -563t-421 -402z" />
<glyph unicode="*" horiz-adv-x="964" d="M152 1081l221 101l-221 100l79 137l197 -143l-22 244h155l-22 -244l198 143l76 -137l-221 -100l221 -101l-76 -137l-198 141l22 -241h-155l22 241l-197 -141z" />
<glyph unicode="+" horiz-adv-x="1280" d="M166 596v164h391v395h164v-395h395v-164h-395v-393h-164v393h-391z" />
<glyph unicode="," horiz-adv-x="593" d="M172 -315l33 565h221l-107 -565h-147z" />
<glyph unicode="-" horiz-adv-x="755" d="M125 432v182h506v-182h-506z" />
<glyph unicode="." horiz-adv-x="593" d="M152 117q0 67 32 99t113 32q80 0 113 -32q32 -32 32 -98t-32 -99q-32 -31 -112 -31q-81 0 -114 32t-32 97z" />
<glyph unicode="/" horiz-adv-x="966" d="M33 -205l747 1807l152 -58l-748 -1806z" />
<glyph unicode="0" horiz-adv-x="1208" d="M92 678q0 326 130 517t382 191t382 -191t130 -517t-131 -517t-381 -191t-381 190q-131 192 -131 518zM305 678q0 -252 78 -398t221 -145q143 -1 221 145t78 398t-78 397t-221 145t-221 -144q-78 -146 -78 -398z" />
<glyph unicode="1" horiz-adv-x="1208" d="M92 1145l402 211h237v-1194h383v-162h-997v162h409v995l-368 -176z" />
<glyph unicode="2" horiz-adv-x="1208" d="M135 1229q221 158 467 157q199 0 327 -101t128 -292q0 -127 -74 -227t-179 -166q-106 -66 -212 -125t-180 -138t-76 -175h717v-162h-916q-20 137 8 245q29 107 89 175t140 122t161 99q83 45 151 90t112 110t44 159t-70 152t-188 58q-166 0 -381 -133z" />
<glyph unicode="3" horiz-adv-x="1208" d="M129 84l49 149q192 -88 356 -88t250 69t86 170t-86 170t-237 69h-92v155h80q141 0 220 67t79 160t-74 149t-224 56t-339 -88l-47 150q188 114 412 114t352 -104t128 -258q0 -98 -62 -182t-189 -131v-9q141 -39 215 -129t73 -200q0 -168 -142 -286t-375 -118t-433 115z " />
<glyph unicode="4" horiz-adv-x="1208" d="M61 309v172l676 875h254v-885h164v-162h-164v-309h-200v309h-730zM258 471h533v692h-9l-524 -684v-8z" />
<glyph unicode="5" horiz-adv-x="1208" d="M113 84l43 149q203 -94 374 -93q172 1 258 87t86 211t-78 210q-79 85 -214 85t-289 -96l-148 35l35 684h828v-166h-648l-20 -369q150 72 295 72q209 0 332 -130t123 -322q0 -191 -142 -331t-384 -140q-244 0 -451 114z" />
<glyph unicode="6" horiz-adv-x="1208" d="M86 643q0 199 53 347t145 232q179 166 429 164q170 0 336 -59l-23 -164q-170 55 -299 56q-174 0 -289 -116t-135 -335l4 -2q72 61 177 98t202 37q207 0 330 -128q123 -127 123 -321q1 -194 -143 -338t-371 -144t-383 169q-156 170 -156 504zM301 588q4 -221 97 -337 q92 -116 230 -116t217 98q79 99 79 223t-71 204t-196 81q-86 -1 -183 -41t-173 -112z" />
<glyph unicode="7" horiz-adv-x="1208" d="M137 1190v166h955v-164l-551 -1192h-224l564 1182v8h-744z" />
<glyph unicode="8" horiz-adv-x="1208" d="M94 367q0 104 70 202t205 146v8q-221 102 -222 311q1 158 131 255t328 97t326 -97q129 -97 129 -255q0 -190 -211 -303v-8q266 -102 266 -356q0 -176 -143 -287t-369 -111t-368 111t-142 287zM305 383q0 -117 84 -181t215 -65t215 63t84 186t-141 186q-108 51 -221 79 q-236 -110 -236 -268zM360 1011q0 -107 128 -162q60 -25 182 -61q180 84 180 226q0 102 -70 157t-176 55t-175 -54t-69 -161z" />
<glyph unicode="9" horiz-adv-x="1208" d="M70 916q0 190 144 330t370 140t383 -170q156 -170 155 -503q0 -199 -53 -347t-144 -232q-177 -165 -429 -165q-172 0 -334 60l22 164q170 -55 297 -56q176 0 292 118t136 351l-6 2q-72 -59 -178 -96t-203 -37q-208 0 -330 125q-122 126 -122 316zM285 923 q-1 -122 73 -204t201 -82q84 0 180 39t170 110q-8 209 -100 322t-229 113t-216 -88t-79 -210z" />
<glyph unicode=":" horiz-adv-x="593" d="M152 117q0 67 32 99t113 32q80 0 113 -32q32 -32 32 -98t-32 -99q-32 -31 -112 -31q-81 0 -114 32t-32 97zM152 930q0 66 32 98t113 33q80 0 113 -33q32 -32 32 -98t-32 -98t-112 -31q-81 0 -114 32q-32 31 -32 97z" />
<glyph unicode=";" horiz-adv-x="593" d="M152 930q0 66 32 98t113 33q80 0 113 -33q32 -32 32 -98t-32 -98t-112 -31q-81 0 -114 32q-32 31 -32 97zM172 -315l33 565h221l-107 -565h-147z" />
<glyph unicode="&#x3c;" horiz-adv-x="1269" d="M160 596v164l882 414l68 -148l-766 -344l766 -340l-68 -158z" />
<glyph unicode="=" horiz-adv-x="1280" d="M166 381v164h950v-164h-950zM166 811v164h950v-164h-950z" />
<glyph unicode="&#x3e;" horiz-adv-x="1269" d="M160 332l766 342l-766 340l67 160l883 -414v-164l-883 -412z" />
<glyph unicode="?" horiz-adv-x="980" d="M70 1260q202 126 400 126t320 -90t121 -280q0 -170 -94 -258q-71 -66 -175 -149q-104 -82 -112 -214h-159q-12 102 17 178q30 76 80 121t102 86q128 101 128 228q0 203 -243 202q-133 0 -322 -102zM313 108q0 62 31 92t106 29q76 1 106 -29t30 -91t-31 -91t-105 -30 t-106 30q-31 30 -31 90z" />
<glyph unicode="@" horiz-adv-x="2021" d="M131 451q1 193 63 355t161 266q99 105 225 178q239 138 493 136q332 0 567 -175q117 -87 184 -235t66 -341q0 -256 -140 -425t-327 -169q-137 0 -213 100q-121 -104 -301 -104q-143 0 -250 107q-106 108 -106 294q0 252 139 400t316 147q135 0 241 -76l23 52h168 l-88 -730q35 -35 83 -39t98 28q50 30 93 84t71 141q27 87 27 217t-53 250q-97 221 -352 296q-115 35 -242 35t-256 -45t-250 -135t-197 -250t-77 -362q0 -322 185 -493t460 -171t522 127l27 -129q-246 -141 -530 -141q-369 0 -600 206q-230 207 -230 601zM741 459 q1 -125 63 -199t166 -74t201 90l56 469q-74 86 -190 86t-206 -102t-90 -270z" />
<glyph unicode="A" horiz-adv-x="1423" d="M33 0l547 1356h264l545 -1356h-222l-143 371h-635l-143 -371h-213zM453 535h508l-250 653h-6z" />
<glyph unicode="B" horiz-adv-x="1333" d="M172 0v1356h584q202 0 318 -100t116 -246q0 -100 -60 -184t-178 -124v-8q291 -78 291 -321q0 -147 -124 -260t-328 -113h-619zM377 160h385q126 0 196 68t70 161q0 92 -75 160q-74 67 -208 67h-4h-364v-456zM377 776h362q115 0 177 60t62 147q0 86 -62 151 q-63 64 -174 64h-3h-362v-422z" />
<glyph unicode="C" horiz-adv-x="1284" d="M111 672q0 309 190 512q189 202 511 202h3q195 0 379 -57l-23 -168q-197 47 -329 47q-240 0 -378 -140t-138 -391t138 -389t378 -138q143 0 329 45l23 -166q-180 -59 -379 -60q-328 0 -516 197t-188 506z" />
<glyph unicode="D" horiz-adv-x="1456" d="M172 0v1356h406q356 0 562 -176t206 -496t-212 -502t-556 -182h-406zM377 164h207q248 0 398 138q148 136 148 370v6q0 238 -149 376q-150 138 -397 138h-207v-1028z" />
<glyph unicode="E" horiz-adv-x="1204" d="M172 0v1356h911v-164h-706v-399h655v-164h-655v-465h717v-164h-922z" />
<glyph unicode="F" horiz-adv-x="1153" d="M172 0v1356h870v-164h-665v-444h614v-164h-614v-584h-205z" />
<glyph unicode="G" horiz-adv-x="1386" d="M111 672q0 309 194 512q194 202 519 202h3q203 0 387 -57l-22 -168q-197 47 -338 47q-246 0 -387 -140t-141 -389t141 -389t387 -140q117 0 197 22v399h-326v164h530v-684q-207 -82 -428 -82q-332 0 -524 197t-192 506z" />
<glyph unicode="H" horiz-adv-x="1486" d="M172 0v1356h205v-555h733v555h205v-1356h-205v637h-733v-637h-205z" />
<glyph unicode="I" horiz-adv-x="548" d="M172 0v1356h205v-1356h-205z" />
<glyph unicode="J" horiz-adv-x="790" d="M70 0l22 166q88 -18 152 -19q170 0 170 181v1028h204v-1012q0 -199 -82 -287t-226 -88q-142 0 -240 31z" />
<glyph unicode="K" horiz-adv-x="1382" d="M172 0v1356h205v-1356h-205zM428 709l612 647h254l-614 -631v-8l655 -717h-268z" />
<glyph unicode="L" horiz-adv-x="1138" d="M172 0v1356h205v-1192h692v-164h-897z" />
<glyph unicode="M" horiz-adv-x="1802" d="M164 0l82 1356h280l371 -975h8l373 975h278l82 -1356h-198l-60 1122h-8l-352 -938h-246l-352 938h-8l-60 -1122h-190z" />
<glyph unicode="N" horiz-adv-x="1484" d="M172 0v1356h262l676 -1094h8v1094h197v-1356h-262l-676 1094h-8v-1094h-197z" />
<glyph unicode="O" horiz-adv-x="1589" d="M111 678q0 309 190 509q191 199 493 199t493 -200t191 -508q0 -309 -190 -509q-192 -200 -494 -200t-493 200q-190 200 -190 509zM328 678q0 -236 131 -388q130 -151 333 -151h3q205 0 335 152q130 151 132 387q0 236 -132 388t-336 153q-204 -1 -335 -153t-131 -388z " />
<glyph unicode="P" horiz-adv-x="1308" d="M172 0v1356h578q212 0 330 -127t118 -300t-130 -298t-384 -125h-307v-506h-205zM377 670h301q150 0 228 72q77 71 77 185q0 117 -73 191t-197 74h-336v-522z" />
<glyph unicode="Q" horiz-adv-x="1589" d="M111 678q0 309 190 509q191 199 493 199t493 -200t192 -508q0 -198 -79 -352t-222 -246v-8l333 -355h-278l-248 283q-88 -31 -190 -31q-303 0 -494 200q-190 200 -190 509zM328 678q0 -236 131 -388q130 -151 333 -151h3q205 0 335 152q130 151 132 387q0 236 -132 388 t-336 153q-204 -1 -335 -153t-131 -388z" />
<glyph unicode="R" horiz-adv-x="1337" d="M172 0v1356h600q211 0 329 -123t118 -279q-1 -156 -89 -262t-243 -139l-2 -8l385 -545h-248l-363 526h-282v-526h-205zM377 690h323q147 0 226 70q78 70 78 180t-72 182q-72 70 -197 70h-358v-502z" />
<glyph unicode="S" horiz-adv-x="1245" d="M111 987q0 203 134 301t355 98t471 -77l-22 -168q-213 69 -393 69t-256 -47q-74 -47 -74 -170t160 -176q71 -23 157 -41q212 -44 331 -108q71 -39 116 -115t45 -184q-1 -203 -143 -301t-382 -98t-497 100l22 166q243 -90 433 -90t271 46q81 47 81 170q0 78 -60 126 t-150 66q-88 18 -194 48q-106 29 -195 63t-150 116q-60 83 -60 206z" />
<glyph unicode="T" horiz-adv-x="1214" d="M49 1190v166h1116v-166h-456v-1190h-205v1190h-455z" />
<glyph unicode="U" horiz-adv-x="1486" d="M172 530v826h205v-828q0 -209 104 -299t263 -90t263 90q103 90 103 299v828h205v-826q0 -420 -362 -531q-97 -30 -210 -30q-225 0 -391 123q-84 64 -132 176t-48 262z" />
<glyph unicode="V" horiz-adv-x="1366" d="M33 1356h221l430 -1170h6l430 1170h213l-518 -1356h-264z" />
<glyph unicode="W" horiz-adv-x="2004" d="M33 1356h211l311 -1163h8l311 1163h265l311 -1163h6l311 1163h203l-389 -1356h-264l-309 1149h-9l-311 -1149h-264z" />
<glyph unicode="X" horiz-adv-x="1384" d="M49 0l522 700l-481 656h252l352 -492h8l357 492h235l-481 -645l522 -711h-252l-393 549h-8l-397 -549h-236z" />
<glyph unicode="Y" horiz-adv-x="1312" d="M33 1356h254l370 -594h9l376 594h236l-520 -785v-571h-205v559z" />
<glyph unicode="Z" horiz-adv-x="1204" d="M70 0v162l786 1022v8h-766v164h1024v-162l-786 -1022v-8h807v-164h-1065z" />
<glyph unicode="[" horiz-adv-x="716" d="M193 -205v1766h415v-158h-223v-1450h223v-158h-415z" />
<glyph unicode="\" horiz-adv-x="966" d="M33 1544l151 58l748 -1807l-152 -57z" />
<glyph unicode="]" horiz-adv-x="716" d="M111 -47h223v1450h-223v158h415v-1766h-415v158z" />
<glyph unicode="^" horiz-adv-x="1202" d="M109 485l411 873h164l412 -873l-158 -67l-340 756l-342 -756z" />
<glyph unicode="_" horiz-adv-x="1593" d="M152 -31h1290v-164h-1290v164z" />
<glyph unicode="`" horiz-adv-x="673" d="M131 1495h248l164 -317h-168z" />
<glyph unicode="a" horiz-adv-x="1181" d="M90 289q0 205 192 304q115 59 281 59q112 0 248 -27v73q0 109 -73 161t-222 52t-334 -80l-20 158q202 90 400 90t323 -88t125 -266v-725h-179l-20 106q-145 -137 -356 -137q-153 1 -259 89t-106 231zM299 301q0 -84 61 -129q62 -45 146 -45t169 38t136 95v213 q-133 26 -231 26q-96 0 -157 -25q-124 -50 -124 -173z" />
<glyph unicode="b" horiz-adv-x="1325" d="M172 0v1470h199v-512q147 121 348 121t349 -147q148 -148 148 -408t-150 -407q-151 -147 -347 -147t-348 91l-21 -61h-178zM371 246q123 -109 279 -109q156 1 258 105q103 104 104 282q0 178 -104 282t-258 106q-156 0 -279 -109v-557z" />
<glyph unicode="c" horiz-adv-x="1085" d="M110 520q0 240 156 400q155 159 415 159h3q156 0 311 -53l-20 -158q-158 45 -281 45q-168 -1 -269 -111t-101 -282t100 -278t270 -107q129 0 281 45l20 -160q-152 -51 -311 -51q-264 0 -419 155q-155 156 -155 396z" />
<glyph unicode="d" horiz-adv-x="1325" d="M111 524q0 260 150 408q151 147 344 147t349 -94v485h201v-1470h-180l-21 90q-147 -121 -347 -121h-3q-198 0 -345 147q-148 148 -148 408zM313 524q1 -176 105 -281t244 -106q172 0 292 109v557q-121 109 -276 109t-260 -106t-105 -282z" />
<glyph unicode="e" horiz-adv-x="1232" d="M111 518q0 250 146 406q145 155 389 155h3q178 0 296 -94t156 -231q22 -78 22 -160q0 -62 -13 -127h-793q17 -156 115 -244t262 -88t355 60l22 -158q-180 -68 -385 -68h-4q-264 0 -416 149q-154 150 -155 400zM324 625h591q-6 135 -73 215q-68 80 -195 80t-213 -81 t-110 -214z" />
<glyph unicode="f" horiz-adv-x="796" d="M90 889v139l164 21v49q0 203 68 303t258 100q94 0 190 -20l-20 -152q-98 10 -156 11h-7q-53 0 -84 -28q-32 -30 -41 -66t-9 -99v-98h245v-160h-245v-889h-199v889h-164z" />
<glyph unicode="g" horiz-adv-x="1325" d="M111 553q0 246 150 386q151 140 344 140t349 -94l21 64h180v-1033q0 -236 -161 -335t-367 -99t-414 74l20 160q219 -68 376 -68t251 66t94 209v118q-143 -115 -345 -115t-350 141q-148 140 -148 386zM313 552q1 -165 105 -262t259 -97t277 104v504q-118 110 -289 110h-3 q-139 0 -244 -97t-105 -262z" />
<glyph unicode="h" d="M172 0v1460h199v-502q181 121 371 121q190 -1 300 -109t109 -335v-635h-201v635q0 145 -68 211q-68 65 -179 65h-3q-172 0 -329 -108v-803h-199z" />
<glyph unicode="i" horiz-adv-x="542" d="M141 1323q-1 57 29 85t102 28t101 -28t29 -85t-30 -86q-28 -29 -100 -29t-102 29t-29 86zM172 0v1049h199v-1049h-199z" />
<glyph unicode="j" horiz-adv-x="563" d="M-49 -393l20 155q63 -12 107 -12t67 12q47 25 48 105v1182h198v-1192q1 -177 -119 -239q-66 -34 -156 -34q-74 0 -165 23zM191 1408q30 28 102 28q73 0 101 -28t28 -85t-29 -86t-101 -29t-101 29q-29 28 -29 82q0 61 29 89z" />
<glyph unicode="k" horiz-adv-x="1241" d="M172 0v1470h199v-1470h-199zM422 549l469 500h248l-469 -484v-8l508 -557h-260z" />
<glyph unicode="l" horiz-adv-x="542" d="M172 0v1470h199v-1470h-199z" />
<glyph unicode="m" horiz-adv-x="1937" d="M172 0v1049h178l21 -91q165 121 357 121t278 -131q193 131 409 131q162 0 256 -90t94 -313v-676h-198v676q-1 137 -57 186t-160 49q-168 0 -293 -110q12 -47 12 -125v-676h-201v676q0 137 -55 186t-160 49q-145 0 -282 -108v-803h-199z" />
<glyph unicode="n" d="M172 0v1049h178l21 -91q181 121 371 121q190 -1 300 -109t109 -335v-635h-201v635q0 145 -68 211q-68 65 -179 65h-3q-172 0 -329 -108v-803h-199z" />
<glyph unicode="o" horiz-adv-x="1337" d="M266 923q156 157 403 157t403 -158q155 -155 155 -395v-3q0 -242 -156 -398q-157 -156 -403 -157q-246 1 -402 157q-155 155 -155 395q0 245 155 402zM324 524q0 -170 97 -280t249 -111q152 0 249 111q97 110 97 280t-97 281t-249 111t-249 -112q-97 -110 -97 -280z" />
<glyph unicode="p" horiz-adv-x="1325" d="M172 -387v1436h178l21 -91q147 121 348 121t349 -147q148 -148 148 -408t-150 -407q-151 -147 -347 -147t-348 91v-448h-199zM371 246q123 -109 279 -109q156 1 258 105q103 104 104 282q0 178 -104 282t-258 106q-156 0 -279 -109v-557z" />
<glyph unicode="q" horiz-adv-x="1325" d="M111 524q0 260 150 408q151 147 344 147t349 -94l21 64h180v-1436h-201v477q-147 -121 -347 -121h-3q-198 0 -345 147q-148 148 -148 408zM313 524q1 -176 105 -281t244 -106q172 0 292 109v557q-121 109 -276 109t-260 -106t-105 -282z" />
<glyph unicode="r" horiz-adv-x="854" d="M172 0v1049h178l23 -146q111 176 367 176q37 0 77 -4l-20 -180q-45 4 -85 4q-114 0 -180 -34q-90 -46 -161 -154v-711h-199z" />
<glyph unicode="s" horiz-adv-x="1038" d="M90 766q0 160 116 236t312 77q196 0 381 -65l-22 -156q-233 57 -351 57h-3q-229 0 -230 -133q0 -122 166 -151t319 -88q74 -29 122 -96t48 -164q0 -150 -121 -232t-329 -82t-404 76l23 156q211 -68 385 -68q243 1 243 148q0 61 -67 95q-68 34 -164 54t-192 48t-164 100 t-68 188z" />
<glyph unicode="t" horiz-adv-x="774" d="M90 889v139l164 21l25 262h174v-262h245v-160h-245v-623q0 -86 52 -108q24 -10 66 -11q50 0 127 15l21 -156q-115 -23 -209 -23q-14 0 -28 1q-104 4 -166 70q-62 67 -62 200v635h-164z" />
<glyph unicode="u" d="M172 414v635h199v-635q0 -276 252 -277q174 0 327 109v803h201v-1049h-180l-21 90q-174 -121 -387 -121q-171 0 -281 109t-110 336z" />
<glyph unicode="v" horiz-adv-x="1193" d="M51 1049h217l330 -863h6l330 863h209l-414 -1049h-264z" />
<glyph unicode="w" horiz-adv-x="1681" d="M51 1049h213l221 -885h7l229 885h248l229 -885h6l223 885h203l-301 -1049h-264l-221 852h-6l-222 -852h-264z" />
<glyph unicode="x" horiz-adv-x="1179" d="M33 0l438 543l-401 506h245l275 -357h8l276 357h236l-401 -498l436 -551h-246l-309 401h-8l-314 -401h-235z" />
<glyph unicode="y" horiz-adv-x="1187" d="M49 1049h217l328 -863h8l328 863h209l-568 -1436h-209l156 387h-55z" />
<glyph unicode="z" horiz-adv-x="1040" d="M70 0v158l628 723v8h-608v160h860v-158l-628 -723v-8h649v-160h-901z" />
<glyph unicode="{" horiz-adv-x="784" d="M90 598v160h49q59 0 91 39t32 104v189q0 213 94 341t326 171l35 -140q-147 -31 -205 -126t-59 -246v-185q0 -147 -88 -227q88 -80 88 -225v-185q0 -154 58 -249t206 -125l-35 -140q-231 43 -326 171q-94 128 -94 343v189q0 141 -123 141h-49z" />
<glyph unicode="|" horiz-adv-x="616" d="M225 -369v2093h166v-2093h-166z" />
<glyph unicode="}" horiz-adv-x="784" d="M70 -106q145 30 203 126t59 246v185q0 147 88 227q-88 80 -88 225v187q0 152 -58 246t-204 126l34 140q232 -43 326 -171t94 -341v-189q0 -143 121 -143h51v-160h-51q-121 0 -121 -143v-189q0 -213 -94 -341t-326 -171z" />
<glyph unicode="~" horiz-adv-x="1280" d="M100 584q111 301 330 301q68 0 134 -37t108 -81q115 -118 190 -118q111 0 203 189l115 -64q-113 -301 -330 -301q-84 0 -163 58q-79 59 -147 117t-122 59q-107 -1 -203 -189z" />
<glyph unicode="&#xa1;" horiz-adv-x="737" d="M233 940q0 61 31 91t106 30q74 0 104 -30t30 -92t-30 -91t-104 -29t-106 30q-31 30 -31 91zM256 -383l35 995h158l32 -995h-225z" />
<glyph unicode="&#xa2;" horiz-adv-x="1085" d="M110 519q0 208 119 359t326 189v244h166v-234q160 -12 274 -51l-20 -158q-158 45 -281 45q-168 -1 -269 -111t-101 -282t100 -278t270 -107q129 0 281 45l20 -160q-133 -43 -274 -49v-237h-166v248q-209 37 -327 183t-118 354z" />
<glyph unicode="&#xa3;" horiz-adv-x="1148" d="M111 0v160q250 233 213 432h-213v160h159q-8 16 -43 77q-63 112 -63 189q0 170 121 269t325 99t430 -77l-22 -168q-422 134 -572 15q-68 -54 -67 -155q0 -60 48 -142t60 -107h369v-160h-321q25 -201 -181 -430h707v-162h-950z" />
<glyph unicode="&#xa5;" horiz-adv-x="1312" d="M33 1356h254l370 -594h9l376 594h236l-498 -748l-8 -51h363v-162h-377v-395h-205v395h-375v162h357l-9 47z" />
<glyph unicode="&#xa6;" horiz-adv-x="616" d="M225 -369v801h166v-801h-166zM225 924v800h166v-800h-166z" />
<glyph unicode="&#xa7;" horiz-adv-x="1282" d="M139 746q0 122 142 233q-99 82 -99 213t111 214t340 83t426 -100l-45 -152q-224 86 -370 86t-198 -35t-51 -101q0 -67 79 -109t192 -72q112 -30 224 -70q112 -39 190 -120t79 -206q0 -125 -143 -235q98 -78 98 -209t-124 -215t-341 -84q-113 0 -248 29t-221 71l47 152 q225 -86 418 -86q256 0 256 141q0 64 -79 106q-78 42 -190 72t-224 68q-112 39 -190 121q-79 83 -79 205zM344 759q0 -73 54 -121t119 -70t179 -56t172 -57q84 69 84 143t-54 120t-119 68t-179 57q-114 34 -172 56q-84 -66 -84 -140z" />
<glyph unicode="&#xa8;" horiz-adv-x="907" d="M137 1326q0 112 121 112q68 0 96 -28t27 -83q0 -113 -122 -113t-122 112zM530 1327q0 55 28 83t95 28q121 0 121 -112t-122 -112t-122 113z" />
<glyph unicode="&#xa9;" horiz-adv-x="1679" d="M131 678q0 301 204 505q204 203 505 203t505 -204q203 -204 203 -504q0 -301 -204 -505t-504 -204q-301 0 -505 204t-204 505zM274 678q0 -244 163 -410t403 -166t402 166t163 410q0 244 -163 410q-162 166 -402 165q-240 1 -403 -165t-163 -410zM428 675q0 183 119 303 t319 120q117 0 242 -45l-16 -138q-133 35 -211 35q-119 0 -190 -77t-71 -199t70 -195q70 -74 178 -74t224 35l16 -139q-121 -43 -242 -43q-202 0 -320 117t-118 300z" />
<glyph unicode="&#xab;" horiz-adv-x="1302" d="M131 524l457 480l123 -115l-344 -365l344 -364l-123 -115zM592 524l457 480l122 -115l-344 -365l344 -364l-122 -115z" />
<glyph unicode="&#xac;" horiz-adv-x="1280" d="M166 596v164h950v-557h-164v393h-786z" />
<glyph unicode="&#xad;" horiz-adv-x="755" d="M125 432v182h506v-182h-506z" />
<glyph unicode="&#xae;" horiz-adv-x="970" d="M131 1032q0 152 102 253t252 101t252 -101q103 -101 103 -253t-102 -253t-253 -101q-150 0 -252 101t-102 253zM209 1032q0 -118 80 -198q79 -80 195 -80t192 75h-111l-84 136h-53v-136h-106v406h202q70 0 108 -40t38 -95q0 -82 -78 -119l-2 -2l94 -139q74 80 74 196 t-79 196q-79 81 -195 81t-196 -81t-79 -200zM428 1044h72q59 0 59 56t-51 55h-80v-111z" />
<glyph unicode="&#xaf;" horiz-adv-x="800" d="M131 1237v156h539v-156h-539z" />
<glyph unicode="&#xb0;" horiz-adv-x="940" d="M131 1062q0 140 96 232q97 92 243 92t242 -92t97 -232q0 -140 -96 -232q-97 -92 -243 -93q-146 0 -243 92q-96 93 -96 233zM289 1063q0 -78 51 -129t129 -51t129 51t51 129t-51 128t-129 50t-129 -50t-51 -128z" />
<glyph unicode="&#xb1;" horiz-adv-x="1280" d="M166 0v164h950v-164h-950zM166 678v164h391v395h164v-395h395v-164h-395v-393h-164v393h-391z" />
<glyph unicode="&#xb2;" horiz-adv-x="806" d="M113 1286q141 86 282 86t221 -57t80 -162q0 -68 -40 -123t-97 -90q-57 -34 -115 -64q-140 -70 -147 -139h397v-127h-575q-14 86 9 154q24 68 69 106q101 84 176 118q143 65 143 149q0 98 -148 98q-76 0 -204 -68z" />
<glyph unicode="&#xb3;" horiz-adv-x="815" d="M111 653l22 119q113 -41 206 -41t140 28t47 74q0 47 -44 75t-117 28h-60v117h55q66 1 107 27t41 68q0 89 -167 89q-85 0 -196 -43l-22 119q109 59 250 59t225 -55t84 -150q0 -117 -129 -166v-4q152 -50 152 -180q-1 -103 -93 -163t-232 -60t-269 59z" />
<glyph unicode="&#xb4;" horiz-adv-x="673" d="M131 1178l164 317h248l-244 -317h-168z" />
<glyph unicode="&#xb5;" d="M172 -387v1436h199v-635q1 -145 69 -211t183 -66q174 0 327 109v803h201v-1049h-180l-21 90q-174 -121 -381 -121q-119 0 -198 60v-416h-199z" />
<glyph unicode="&#xb6;" horiz-adv-x="1308" d="M172 1060q0 156 109 263q109 106 262 107h532v-1553h-123v1442h-200v-1442h-123v807h-84q-153 0 -263 110t-110 266z" />
<glyph unicode="&#xb7;" horiz-adv-x="368" d="M39 680q1 66 33 98t113 31q81 0 113 -32q32 -33 32 -99t-33 -98t-113 -31q-80 0 -112 32q-32 33 -33 99z" />
<glyph unicode="&#xb8;" horiz-adv-x="585" d="M131 -276q90 -2 128 11t38 46q0 55 -137 45l43 192h166l-37 -104q49 -6 87 -42t38 -95q0 -187 -326 -187v134z" />
<glyph unicode="&#xb9;" horiz-adv-x="849" d="M111 1231l245 125h174v-619h211v-127h-610v127h223v443l-186 -82z" />
<glyph unicode="&#xbb;" horiz-adv-x="1302" d="M131 160l344 364l-344 365l123 115l457 -480l-457 -479zM592 160l344 364l-344 365l123 115l456 -480l-456 -479z" />
<glyph unicode="&#xbc;" horiz-adv-x="1730" d="M111 1231l245 125h174v-619h191v-127h-590v127h223v443l-186 -82zM264 8l1227 1434l113 -94l-1227 -1434zM915 162v129l388 454h202v-456h90v-127h-90v-162h-166v162h-424zM1071 289h268v309h-6l-262 -305v-4z" />
<glyph unicode="&#xbd;" horiz-adv-x="1792" d="M111 1231l245 125h174v-619h191v-127h-590v127h223v443l-186 -82zM264 8l1227 1434l113 -94l-1227 -1434zM1098 676q140 86 282 86t222 -57t79 -162q0 -68 -40 -123t-97 -90q-58 -35 -116 -65q-140 -72 -146 -138h397v-127h-575q-14 86 9 154q24 68 69 106 q101 84 176 118q143 65 143 148q1 99 -147 99q-76 0 -205 -68z" />
<glyph unicode="&#xbe;" horiz-adv-x="1695" d="M111 653l22 119q113 -41 206 -41t140 28t47 74q0 47 -44 75t-117 28h-60v117h55q66 1 107 27t41 68q0 89 -167 89q-85 0 -196 -43l-22 119q109 59 250 59t225 -55t84 -150q0 -117 -129 -166v-4q152 -50 152 -180q-1 -103 -93 -163t-232 -60t-269 59zM231 8l1227 1434 l113 -94l-1227 -1434zM881 162v129l387 454h202v-456h93v-127h-93v-162h-165v162h-424zM1036 289h269v309h-5l-264 -305v-4z" />
<glyph unicode="&#xc0;" horiz-adv-x="1423" d="M33 0l547 1356h264l545 -1356h-222l-143 371h-635l-143 -371h-213zM373 1737h260l178 -287h-176zM453 535h508l-250 653h-6z" />
<glyph unicode="&#xc1;" horiz-adv-x="1423" d="M33 0l547 1356h264l545 -1356h-222l-143 371h-635l-143 -371h-213zM453 535h508l-250 653h-6zM594 1450l182 287h260l-266 -287h-176z" />
<glyph unicode="&#xc2;" horiz-adv-x="1423" d="M33 0l547 1356h264l545 -1356h-222l-143 371h-635l-143 -371h-213zM383 1460l207 275h237l211 -275h-211l-118 166l-119 -166h-207zM453 535h508l-250 653h-6z" />
<glyph unicode="&#xc3;" horiz-adv-x="1423" d="M33 0l547 1356h264l545 -1356h-222l-143 371h-635l-143 -371h-213zM412 1620q78 80 150 80t162 -48q91 -48 144 -48t136 92l8 -174q-78 -78 -149 -78t-167 46t-129 46q-66 0 -145 -92zM453 535h508l-250 653h-6z" />
<glyph unicode="&#xc4;" horiz-adv-x="1423" d="M33 0l547 1356h264l545 -1356h-222l-143 371h-635l-143 -371h-213zM365 1597q0 59 29 89q30 28 103 28t103 -28t29 -88q0 -60 -30 -89q-31 -29 -103 -29t-102 30q-30 28 -29 87zM453 535h508l-250 653h-6zM788 1597q0 59 30 88t103 29t103 -28t29 -88q0 -60 -30 -89 q-31 -29 -103 -29t-102 30q-30 28 -30 87z" />
<glyph unicode="&#xc5;" horiz-adv-x="1423" d="M33 0l547 1356h264l545 -1356h-222l-143 371h-635l-143 -371h-213zM453 535h508l-250 653h-6zM467 1624q0 106 67 166t173 61q106 0 175 -60q68 -59 68 -165t-68 -166q-70 -59 -176 -59t-172 59q-66 58 -67 164zM604 1626q0 -104 104 -104t105 104q0 104 -104 103 q-104 0 -105 -103z" />
<glyph unicode="&#xc6;" horiz-adv-x="1992" d="M33 0l801 1356h1040v-164h-709v-399h658v-164h-658v-465h719v-164h-923v371h-488l-215 -371h-225zM569 535h392v657h-9z" />
<glyph unicode="&#xc7;" horiz-adv-x="1284" d="M110 685q0 296 191 499q190 203 514 202q195 0 379 -57l-23 -168q-197 47 -329 47q-240 0 -378 -140t-138 -391t138 -389t378 -138q143 0 329 45l23 -166q-156 -51 -328 -58l-18 -57q49 -6 87 -42t38 -95q0 -187 -326 -187v134q90 -2 128 11t38 46q0 55 -137 45l33 149 q-281 33 -440 223t-159 487z" />
<glyph unicode="&#xc8;" horiz-adv-x="1204" d="M172 0v1356h911v-164h-706v-399h655v-164h-655v-465h717v-164h-922zM373 1737h260l178 -287h-176z" />
<glyph unicode="&#xc9;" horiz-adv-x="1204" d="M172 0v1356h911v-164h-706v-399h655v-164h-655v-465h717v-164h-922zM524 1450l183 287h260l-267 -287h-176z" />
<glyph unicode="&#xca;" horiz-adv-x="1204" d="M172 0v1356h911v-164h-706v-399h655v-164h-655v-465h717v-164h-922zM305 1460l207 275h238l211 -275h-211l-119 166l-119 -166h-207z" />
<glyph unicode="&#xcb;" horiz-adv-x="1204" d="M172 0v1356h911v-164h-706v-399h655v-164h-655v-465h717v-164h-922zM285 1597q0 59 29 89q30 28 103 28t103 -28t29 -88q0 -60 -30 -89q-31 -29 -103 -29t-102 30q-30 28 -29 87zM709 1597q0 59 29 89q30 28 103 28t103 -28t29 -88q0 -60 -30 -89q-31 -29 -103 -29 t-102 30q-30 28 -29 87z" />
<glyph unicode="&#xcc;" horiz-adv-x="548" d="M-63 1737h260l178 -287h-176zM172 0v1356h205v-1356h-205z" />
<glyph unicode="&#xcd;" horiz-adv-x="548" d="M166 1450l182 287h260l-266 -287h-176zM172 0v1356h205v-1356h-205z" />
<glyph unicode="&#xce;" horiz-adv-x="548" d="M-51 1460l207 275h237l211 -275h-211l-119 166l-118 -166h-207zM172 0v1356h205v-1356h-205z" />
<glyph unicode="&#xcf;" horiz-adv-x="548" d="M-70 1597q0 59 30 88t102 29q73 0 103 -28t30 -88t-30 -89t-103 -29q-72 0 -102 30q-30 28 -30 87zM172 0v1356h205v-1356h-205zM354 1597q0 59 30 88t102 29q73 0 103 -28q29 -28 29 -88t-30 -89t-102 -29t-102 30q-30 28 -30 87z" />
<glyph unicode="&#xd0;" horiz-adv-x="1456" d="M41 606v146h131v604h406q356 0 562 -176t206 -496t-212 -502t-556 -182h-406v606h-131zM377 164h207q248 0 398 138t148 376q0 238 -149 376q-150 138 -397 138h-207v-440h366v-146h-366v-442z" />
<glyph unicode="&#xd1;" horiz-adv-x="1484" d="M172 0v1356h262l676 -1094h8v1094h197v-1356h-262l-676 1094h-8v-1094h-197zM442 1620q78 80 150 80t163 -48t144 -48t135 92l8 -174q-78 -78 -148 -78t-167 46q-96 46 -129 46q-66 0 -145 -92z" />
<glyph unicode="&#xd2;" horiz-adv-x="1589" d="M111 678q0 309 190 509q191 199 493 199t493 -200t191 -508q0 -309 -190 -509q-192 -200 -494 -200t-493 200q-190 200 -190 509zM328 678q0 -236 131 -388t336 -151q205 0 335 152q130 151 132 387q0 236 -132 388t-336 153q-204 -1 -335 -153t-131 -388zM465 1737h260 l178 -287h-176z" />
<glyph unicode="&#xd3;" horiz-adv-x="1589" d="M111 678q0 309 190 509q191 199 493 199t493 -200t191 -508q0 -309 -190 -509q-192 -200 -494 -200t-493 200q-190 200 -190 509zM328 678q0 -236 131 -388t336 -151q205 0 335 152q130 151 132 387q0 236 -132 388t-336 153q-204 -1 -335 -153t-131 -388zM690 1450 l182 287h261l-267 -287h-176z" />
<glyph unicode="&#xd4;" horiz-adv-x="1589" d="M111 678q0 309 190 509q191 199 493 199t493 -200t191 -508q0 -309 -190 -509q-192 -200 -494 -200t-493 200q-190 200 -190 509zM328 678q0 -236 131 -388t336 -151q205 0 335 152q130 151 132 387q0 236 -132 388t-336 153q-204 -1 -335 -153t-131 -388zM469 1460 l207 275h237l211 -275h-211l-118 166l-119 -166h-207z" />
<glyph unicode="&#xd5;" horiz-adv-x="1589" d="M111 678q0 309 190 509q191 199 493 199t493 -200t191 -508q0 -309 -190 -509q-192 -200 -494 -200t-493 200q-190 200 -190 509zM328 678q0 -236 131 -388t336 -151q205 0 335 152q130 151 132 387q0 236 -132 388t-336 153q-204 -1 -335 -153t-131 -388zM494 1620 q78 80 150 80t162 -48q91 -48 144 -48t135 92l9 -174q-78 -78 -149 -78t-167 46t-129 46q-66 0 -145 -92z" />
<glyph unicode="&#xd6;" horiz-adv-x="1589" d="M111 678q0 309 190 509q191 199 493 199t493 -200t191 -508q0 -309 -190 -509q-192 -200 -494 -200t-493 200q-190 200 -190 509zM328 678q0 -236 131 -388t336 -151q205 0 335 152q130 151 132 387q0 236 -132 388t-336 153q-204 -1 -335 -153t-131 -388zM449 1597 q0 59 29 89q30 28 103 28t103 -28t29 -88q0 -60 -30 -89q-31 -29 -103 -29t-102 30q-30 28 -29 87zM872 1597q0 59 30 88t103 29t103 -28t29 -88q0 -60 -30 -89q-31 -29 -103 -29t-102 30q-30 28 -30 87z" />
<glyph unicode="&#xd7;" horiz-adv-x="1280" d="M215 375l305 305l-305 307l119 121l307 -307l305 307l121 -121l-309 -307l309 -305l-123 -119l-303 305l-305 -305z" />
<glyph unicode="&#xd8;" horiz-adv-x="1589" d="M111 678q0 309 190 509t494 199q197 0 358 -94l111 146l133 -97l-115 -149q197 -201 197 -512q1 -311 -191 -511t-493 -200q-207 0 -369 99l-107 -142l-139 92l117 154q-186 197 -186 506zM328 696q0 -218 96 -360l616 809q-109 74 -245 74q-205 -1 -336 -153t-131 -370z M541 217q109 -78 254 -78q205 -1 336 151t131 374t-103 364z" />
<glyph unicode="&#xd9;" horiz-adv-x="1486" d="M172 530v826h205v-828q0 -209 104 -299t263 -90t263 90q103 90 103 299v828h205v-826q0 -420 -362 -531q-97 -30 -210 -30q-225 0 -391 123q-84 64 -132 176t-48 262zM451 1737h260l178 -287h-176z" />
<glyph unicode="&#xda;" horiz-adv-x="1486" d="M172 530v826h205v-828q0 -209 104 -299t263 -90t263 90q103 90 103 299v828h205v-826q0 -420 -362 -531q-97 -30 -210 -30q-225 0 -391 123q-84 64 -132 176t-48 262zM633 1450l182 287h260l-266 -287h-176z" />
<glyph unicode="&#xdb;" horiz-adv-x="1486" d="M172 530v826h205v-828q0 -209 104 -299t263 -90t263 90q103 90 103 299v828h205v-826q0 -420 -362 -531q-97 -30 -210 -30q-225 0 -391 123q-84 64 -132 176t-48 262zM414 1460l207 275h237l211 -275h-211l-119 166l-118 -166h-207z" />
<glyph unicode="&#xdc;" horiz-adv-x="1486" d="M172 530v826h205v-828q0 -209 104 -299t263 -90t263 90q103 90 103 299v828h205v-826q0 -420 -362 -531q-97 -30 -210 -30q-225 0 -391 123q-84 64 -132 176t-48 262zM397 1597q-1 59 29 88t103 29t103 -28t30 -88t-30 -89t-103 -29t-103 30q-30 28 -29 87zM821 1597 q-1 59 29 88t103 29t103 -28t30 -88t-30 -89t-103 -29t-103 30q-30 28 -29 87z" />
<glyph unicode="&#xdd;" horiz-adv-x="1312" d="M33 1356h254l370 -594h9l376 594h236l-520 -785v-571h-205v559zM567 1450l183 287h260l-267 -287h-176z" />
<glyph unicode="&#xde;" horiz-adv-x="1308" d="M172 0v1356h205v-252h373q212 0 330 -127t118 -300t-130 -298t-384 -125h-307v-254h-205zM377 418h301q150 0 228 72t77 187q0 115 -73 189t-197 74h-336v-522z" />
<glyph unicode="&#xdf;" horiz-adv-x="1271" d="M172 0v879q0 264 110 443t384 179q208 -1 330 -109t122 -280q0 -109 -60 -200t-179 -134v-8q303 -90 303 -377q0 -188 -134 -306t-341 -118q-99 0 -197 31l27 168q78 -20 149 -21q131 0 209 69q78 68 78 190t-90 203t-244 81h-76v158h64q129 0 206 75t77 176t-64 167 q-63 66 -187 66t-206 -104q-82 -103 -82 -288v-940h-199z" />
<glyph unicode="&#xe0;" horiz-adv-x="1181" d="M90 289q0 205 192 304t529 32v73q0 109 -73 161t-222 52t-334 -80l-20 158q202 90 400 90t323 -88t125 -266v-725h-179l-20 106q-145 -137 -356 -137q-153 1 -259 89t-106 231zM299 301q0 -84 61 -129q62 -45 146 -45t169 38t136 95v213q-264 51 -388 1t-124 -173z M307 1495h248l164 -317h-168z" />
<glyph unicode="&#xe1;" horiz-adv-x="1181" d="M90 289q0 205 192 304t529 32v73q0 109 -73 161t-222 52t-334 -80l-20 158q202 90 400 90t323 -88t125 -266v-725h-179l-20 106q-145 -137 -356 -137q-153 1 -259 89t-106 231zM299 301q0 -84 61 -129q62 -45 146 -45t169 38t136 95v213q-264 51 -388 1t-124 -173z M465 1178l164 317h248l-244 -317h-168z" />
<glyph unicode="&#xe2;" horiz-adv-x="1181" d="M90 289q0 205 192 304t529 32v73q0 109 -73 161t-222 52t-334 -80l-20 158q202 90 400 90t323 -88t125 -266v-725h-179l-20 106q-145 -137 -356 -137q-153 1 -259 89t-106 231zM279 1178l190 317h236l190 -317h-188l-119 217l-119 -217h-190zM299 301q0 -84 61 -129 q62 -45 146 -45t169 38t136 95v213q-264 51 -388 1t-124 -173z" />
<glyph unicode="&#xe3;" horiz-adv-x="1181" d="M90 289q0 205 192 304t529 32v73q0 109 -73 161t-222 52t-334 -80l-20 158q202 90 400 90t323 -88t125 -266v-725h-179l-20 106q-145 -137 -356 -137q-153 1 -259 89t-106 231zM283 1366q77 82 149 82t169 -49t151 -49t135 92l10 -172q-78 -80 -150 -80t-174 47t-133 47 q-72 0 -149 -90zM299 301q0 -84 61 -129q62 -45 146 -45t169 38t136 95v213q-264 51 -388 1t-124 -173z" />
<glyph unicode="&#xe4;" horiz-adv-x="1181" d="M90 289q0 205 192 304t529 32v73q0 109 -73 161t-222 52t-334 -80l-20 158q202 90 400 90t323 -88t125 -266v-725h-179l-20 106q-145 -137 -356 -137q-153 1 -259 89t-106 231zM266 1326q0 112 121 112q67 0 95 -28t28 -83q0 -113 -122 -113t-122 112zM299 301 q0 -84 61 -129q62 -45 146 -45t169 38t136 95v213q-264 51 -388 1t-124 -173zM659 1327q-1 55 27 83t96 28q123 0 121 -111q0 -113 -122 -113t-122 113z" />
<glyph unicode="&#xe5;" horiz-adv-x="1181" d="M90 289q0 205 192 304t529 32v73q0 109 -73 161t-222 52t-334 -80l-20 158q202 90 400 90t323 -88t125 -266v-725h-179l-20 106q-145 -137 -356 -137q-153 1 -259 89t-106 231zM299 301q0 -84 61 -129q62 -45 146 -45t169 38t136 95v213q-264 51 -388 1t-124 -173z M328 1346q0 106 67 162t177 56t180 -56t70 -161t-70 -162q-68 -57 -179 -57t-179 56t-66 162zM467 1348q0 -106 106 -107q51 0 80 28t29 79q0 104 -109 104q-49 0 -77 -28t-29 -76z" />
<glyph unicode="&#xe6;" horiz-adv-x="1923" d="M90 296q0 157 124 255t351 98q115 0 246 -24v73q0 109 -73 161t-222 52t-334 -80l-20 158q201 90 405 90q274 0 381 -166q150 166 384 166t358 -143t122 -346q0 -41 -12 -123h-788q16 -156 113 -244t261 -88t353 60l22 -158q-180 -68 -385 -68q-330 0 -481 226 q-143 -225 -422 -226q-159 0 -271 85t-112 242zM299 304q0 -87 61 -132t150 -45q129 -1 215 101t86 245q-137 29 -251 29t-188 -56q-73 -56 -73 -142zM1016 625h590q-6 135 -74 215t-195 80t-213 -81t-108 -214z" />
<glyph unicode="&#xe7;" horiz-adv-x="1085" d="M111 531q0 229 155 389q156 160 418 159q156 0 311 -53l-20 -158q-158 45 -281 45q-168 -1 -269 -111t-101 -282t100 -278t270 -107q129 0 281 45l20 -160q-117 -39 -245 -49l-21 -57q49 -6 87 -42t38 -95q0 -187 -326 -187v134q90 -2 128 11t38 46q0 55 -137 45l33 149 q-223 27 -351 177t-128 379z" />
<glyph unicode="&#xe8;" horiz-adv-x="1232" d="M111 518q0 250 146 406t392 155q178 0 296 -94t156 -231t9 -287h-793q17 -156 115 -244t262 -88t355 60l22 -158q-180 -68 -385 -68q-266 -1 -420 149t-155 400zM324 625h591q-6 135 -73 215q-68 80 -195 80t-213 -81t-110 -214zM358 1495h248l164 -317h-168z" />
<glyph unicode="&#xe9;" horiz-adv-x="1232" d="M111 518q0 250 146 406t392 155q178 0 296 -94t156 -231t9 -287h-793q17 -156 115 -244t262 -88t355 60l22 -158q-180 -68 -385 -68q-266 -1 -420 149t-155 400zM324 625h591q-6 135 -73 215q-68 80 -195 80t-213 -81t-110 -214zM557 1178l164 317h248l-244 -317h-168z " />
<glyph unicode="&#xea;" horiz-adv-x="1232" d="M111 518q0 250 146 406t392 155q178 0 296 -94t156 -231t9 -287h-793q17 -156 115 -244t262 -88t355 60l22 -158q-180 -68 -385 -68q-266 -1 -420 149t-155 400zM322 1178l190 317h236l190 -317h-188l-119 217l-119 -217h-190zM324 625h591q-6 135 -73 215 q-68 80 -195 80t-213 -81t-110 -214z" />
<glyph unicode="&#xeb;" horiz-adv-x="1232" d="M111 518q0 250 146 406t392 155q178 0 296 -94t156 -231t9 -287h-793q17 -156 115 -244t262 -88t355 60l22 -158q-180 -68 -385 -68q-266 -1 -420 149t-155 400zM319 1326q0 112 121 112q68 0 96 -28t27 -83q0 -113 -122 -113t-122 112zM324 625h591q-6 135 -73 215 q-68 80 -195 80t-213 -81t-110 -214zM713 1327q0 55 27 83q28 28 96 28q122 0 120 -111q0 -113 -122 -113t-121 113z" />
<glyph unicode="&#xec;" horiz-adv-x="542" d="M-41 1495h248l164 -317h-168zM172 0v1049h199v-1049h-199z" />
<glyph unicode="&#xed;" horiz-adv-x="542" d="M170 1178l164 317h248l-244 -317h-168zM172 0v1049h199v-1049h-199z" />
<glyph unicode="&#xee;" horiz-adv-x="542" d="M-37 1178l191 317h235l191 -317h-189l-119 217l-118 -217h-191zM172 0v1049h199v-1049h-199z" />
<glyph unicode="&#xef;" horiz-adv-x="542" d="M-45 1326q0 112 121 112q68 0 96 -28t27 -83q0 -113 -122 -113t-122 112zM172 0v1049h199v-1049h-199zM348 1327q0 55 28 83t95 28q121 0 121 -112t-122 -112t-122 113z" />
<glyph unicode="&#xf0;" horiz-adv-x="1255" d="M111 467q0 123 44 218q78 169 273 234q84 27 203 27t223 -41q-90 164 -221 293l-211 -119l-86 99l194 108q-72 57 -190 129l182 88q100 -59 176 -125l203 115l84 -98l-188 -107q348 -348 348 -792q-1 -230 -143 -378t-374 -148t-375 134q-142 136 -142 363zM324 469 q0 -162 87 -249t218 -87q182 0 261 170t11 436q-104 53 -274 54q-121 0 -212 -81t-91 -243z" />
<glyph unicode="&#xf1;" d="M172 0v1049h178l21 -91q181 121 371 121q190 -1 300 -109t109 -335v-635h-201v635q0 145 -68 211q-69 66 -182 65q-172 0 -329 -108v-803h-199zM352 1366q76 82 149 82t170 -49t151 -49t134 92l11 -172q-78 -80 -150 -80t-174 47t-133 47q-72 0 -150 -90z" />
<glyph unicode="&#xf2;" horiz-adv-x="1337" d="M111 524q0 242 155 399q156 157 403 157t403 -158q156 -156 155 -398q0 -242 -156 -398q-157 -156 -403 -157q-246 1 -402 157t-155 398zM324 524q0 -170 97 -280t249 -111q152 0 249 111q97 110 97 280t-97 281t-249 111t-249 -112q-97 -110 -97 -280zM371 1495h247 l164 -317h-168z" />
<glyph unicode="&#xf3;" horiz-adv-x="1337" d="M111 524q0 242 155 399q156 157 403 157t403 -158q156 -156 155 -398q0 -242 -156 -398q-157 -156 -403 -157q-246 1 -402 157t-155 398zM324 524q0 -170 97 -280t249 -111q152 0 249 111q97 110 97 280t-97 281t-249 111t-249 -112q-97 -110 -97 -280zM561 1178l164 317 h248l-244 -317h-168z" />
<glyph unicode="&#xf4;" horiz-adv-x="1337" d="M111 524q0 242 155 399q156 157 403 157t403 -158q156 -156 155 -398q0 -242 -156 -398q-157 -156 -403 -157q-246 1 -402 157t-155 398zM324 524q0 -170 97 -280t249 -111q152 0 249 111q97 110 97 280t-97 281t-249 111t-249 -112q-97 -110 -97 -280zM358 1178l191 317 h235l191 -317h-189l-118 217l-119 -217h-191z" />
<glyph unicode="&#xf5;" horiz-adv-x="1337" d="M111 524q0 242 155 399q156 157 403 157t403 -158q156 -156 155 -398q0 -242 -156 -398q-157 -156 -403 -157q-246 1 -402 157t-155 398zM324 524q0 -170 97 -280t249 -111q152 0 249 111q97 110 97 280t-97 281t-249 111t-249 -112q-97 -110 -97 -280zM358 1366 q76 82 149 82t170 -49t151 -49t135 92l10 -172q-78 -80 -150 -80t-174 47t-133 47q-72 0 -149 -90z" />
<glyph unicode="&#xf6;" horiz-adv-x="1337" d="M111 524q0 242 155 399q156 157 403 157t403 -158q156 -156 155 -398q0 -242 -156 -398q-157 -156 -403 -157q-246 1 -402 157t-155 398zM324 524q0 -170 97 -280t249 -111q152 0 249 111q97 110 97 280t-97 281t-249 111t-249 -112q-97 -110 -97 -280zM350 1326 q0 112 121 112q67 0 95 -28t28 -83q0 -113 -122 -113t-122 112zM743 1327q-1 55 27 83t96 28q121 0 121 -112t-122 -112t-122 113z" />
<glyph unicode="&#xf7;" horiz-adv-x="1280" d="M166 596v164h950v-164h-950zM502 236q0 62 29 93q30 29 105 29q76 0 106 -30t30 -90q0 -62 -31 -92t-105 -30t-105 30q-29 28 -29 90zM502 1119q0 62 29 92q30 30 105 30q76 0 106 -30t30 -91t-31 -91t-105 -30t-105 29q-29 29 -29 91z" />
<glyph unicode="&#xf8;" horiz-adv-x="1337" d="M111 521q0 245 155 402q156 157 404 156q152 0 278 -65l94 123l119 -90l-92 -123q158 -158 158 -400t-156 -398t-401 -157q-154 0 -277 64l-88 -117l-125 86l90 119q-159 155 -159 400zM324 538q0 -156 67 -257l449 589q-78 45 -170 45q-152 -1 -249 -111t-97 -266z M502 176q74 -43 168 -43q152 1 249 111t97 264t-68 256z" />
<glyph unicode="&#xf9;" d="M172 414v635h199v-635q0 -276 252 -277q174 0 327 109v803h201v-1049h-180l-21 90q-174 -121 -387 -121q-171 0 -281 109t-110 336zM377 1495h248l163 -317h-167z" />
<glyph unicode="&#xfa;" d="M172 414v635h199v-635q0 -276 252 -277q174 0 327 109v803h201v-1049h-180l-21 90q-174 -121 -387 -121q-171 0 -281 109t-110 336zM551 1178l164 317h248l-244 -317h-168z" />
<glyph unicode="&#xfb;" d="M172 414v635h199v-635q0 -276 252 -277q174 0 327 109v803h201v-1049h-180l-21 90q-174 -121 -387 -121q-171 0 -281 109t-110 336zM350 1178l191 317h235l191 -317h-189l-119 217l-118 -217h-191z" />
<glyph unicode="&#xfc;" d="M172 414v635h199v-635q0 -276 252 -277q174 0 327 109v803h201v-1049h-180l-21 90q-174 -121 -387 -121q-171 0 -281 109t-110 336zM344 1326q0 112 121 112q67 0 95 -28t28 -83q0 -113 -122 -113t-122 112zM737 1327q-1 55 27 83t96 28q121 0 121 -112t-122 -112 t-122 113z" />
<glyph unicode="&#xfd;" horiz-adv-x="1187" d="M49 1049h217l328 -863h8l328 863h209l-568 -1436h-209l156 387h-55zM500 1178l164 317h247l-243 -317h-168z" />
<glyph unicode="&#xfe;" horiz-adv-x="1325" d="M172 -387v1857h199v-512q147 121 348 121t349 -147q148 -148 148 -408t-150 -407q-151 -147 -347 -147t-348 91v-448h-199zM371 246q123 -109 279 -109q156 1 258 105q103 104 104 282q0 178 -104 282t-258 106q-156 0 -279 -109v-557z" />
<glyph unicode="&#xff;" horiz-adv-x="1187" d="M49 1049h217l328 -863h8l328 863h209l-568 -1436h-209l156 387h-55zM276 1326q0 112 121 112q68 0 96 -28t27 -83q0 -113 -122 -113t-122 112zM670 1327q0 55 27 83q28 28 96 28q122 0 120 -111q1 -113 -121 -113t-122 113z" />
<glyph unicode="&#x100;" horiz-adv-x="1423" d="M33 0l547 1356h264l545 -1356h-222l-143 371h-635l-143 -371h-213zM434 1505v156h551v-156h-551zM453 535h508l-250 653h-6z" />
<glyph unicode="&#x101;" horiz-adv-x="1181" d="M90 289q0 205 192 304t529 32v73q0 109 -73 161t-222 52t-334 -80l-20 158q202 90 400 90t323 -88t125 -266v-725h-179l-20 106q-145 -137 -356 -137q-153 1 -259 89t-106 231zM299 301q0 -84 61 -129q62 -45 146 -45t169 38t136 95v213q-264 51 -388 1t-124 -173z M301 1237v156h539v-156h-539z" />
<glyph unicode="&#x102;" horiz-adv-x="1423" d="M33 0l547 1356h264l545 -1356h-222l-143 371h-635l-143 -371h-213zM418 1735h157q2 -72 38 -112q35 -40 95 -40t96 40t36 112h161q-3 -141 -83 -216t-209 -75t-209 75t-82 216zM453 535h508l-250 653h-6z" />
<glyph unicode="&#x103;" horiz-adv-x="1181" d="M90 289q0 205 192 304t529 32v73q0 109 -73 161t-222 52t-334 -80l-20 158q202 90 400 90t323 -88t125 -266v-725h-179l-20 106q-145 -137 -356 -137q-153 1 -259 89t-106 231zM299 301q0 -84 61 -129q62 -45 146 -45t169 38t136 95v213q-264 51 -388 1t-124 -173z M303 1477h154q0 -164 130 -164t130 164h155q0 -145 -73 -226q-74 -80 -212 -80t-211 80t-73 226z" />
<glyph unicode="&#x104;" horiz-adv-x="1423" d="M33 0l547 1356h264l545 -1356h-23q-66 -47 -104 -102t-37 -97q0 -55 59 -55q39 0 105 27v-142q-205 -69 -302 15q-51 45 -51 114q0 127 150 240h-19l-143 371h-635l-143 -371h-213zM453 535h508l-250 653h-6z" />
<glyph unicode="&#x105;" horiz-adv-x="1181" d="M90 289q0 205 192 304t529 32v73q0 109 -73 161t-222 52t-334 -80l-20 158q202 90 400 90t323 -88t125 -266v-725q-66 -47 -104 -102t-38 -97q0 -55 60 -55q39 0 104 27v-142q-204 -69 -301 15q-51 45 -51 114q0 129 151 240l-20 106q-145 -137 -356 -137q-153 1 -259 89 t-106 231zM299 301q0 -84 61 -129q62 -45 146 -45t169 38t136 95v213q-264 51 -388 1t-124 -173z" />
<glyph unicode="&#x106;" horiz-adv-x="1284" d="M111 672q0 309 190 512t514 202q195 0 379 -57l-23 -168q-197 47 -329 47q-240 0 -378 -140t-138 -391t138 -389t378 -138q143 0 329 45l23 -166q-180 -59 -379 -60q-328 0 -516 197t-188 506zM702 1450l183 287h260l-266 -287h-177z" />
<glyph unicode="&#x107;" horiz-adv-x="1085" d="M110 520q0 240 156 400t418 159q156 0 311 -53l-20 -158q-158 45 -281 45q-168 -1 -269 -111t-101 -282t100 -278t270 -107q129 0 281 45l20 -160q-152 -51 -311 -51q-264 0 -419 155q-155 156 -155 396zM563 1178l164 317h248l-244 -317h-168z" />
<glyph unicode="&#x108;" horiz-adv-x="1284" d="M111 672q0 309 190 512t514 202q195 0 379 -57l-23 -168q-197 47 -329 47q-240 0 -378 -140t-138 -391t138 -389t378 -138q143 0 329 45l23 -166q-180 -59 -379 -60q-328 0 -516 197t-188 506zM457 1460l207 275h237l211 -275h-211l-119 166l-118 -166h-207z" />
<glyph unicode="&#x109;" horiz-adv-x="1085" d="M110 520q0 240 156 400t418 159q156 0 311 -53l-20 -158q-158 45 -281 45q-168 -1 -269 -111t-101 -282t100 -278t270 -107q129 0 281 45l20 -160q-152 -51 -311 -51q-264 0 -419 155q-155 156 -155 396zM332 1178l190 317h236l190 -317h-188l-119 217l-119 -217h-190z " />
<glyph unicode="&#x10a;" horiz-adv-x="1284" d="M111 672q0 309 190 512t514 202q195 0 379 -57l-23 -168q-197 47 -329 47q-240 0 -378 -140t-138 -391t138 -389t378 -138q143 0 329 45l23 -166q-180 -59 -379 -60q-328 0 -516 197t-188 506zM666 1597q0 59 29 89q30 28 103 28q72 0 102 -28t30 -88t-30 -89t-102 -29 t-103 30q-30 28 -29 87z" />
<glyph unicode="&#x10b;" horiz-adv-x="1085" d="M110 520q0 240 156 400t418 159q156 0 311 -53l-20 -158q-158 45 -281 45q-168 -1 -269 -111t-101 -282t100 -278t270 -107q129 0 281 45l20 -160q-152 -51 -311 -51q-264 0 -419 155q-155 156 -155 396zM551 1323q1 57 29 85t100 28t102 -28t29 -85q0 -57 -30 -86 q-29 -29 -101 -29t-100 29t-29 86z" />
<glyph unicode="&#x10c;" horiz-adv-x="1284" d="M111 672q0 309 190 512t514 202q195 0 379 -57l-23 -168q-197 47 -329 47q-240 0 -378 -140t-138 -391t138 -389t378 -138q143 0 329 45l23 -166q-180 -59 -379 -60q-328 0 -516 197t-188 506zM473 1735h207l119 -168l119 168h210l-210 -275h-238z" />
<glyph unicode="&#x10d;" horiz-adv-x="1085" d="M110 520q0 240 156 400t418 159q156 0 311 -53l-20 -158q-158 45 -281 45q-168 -1 -269 -111t-101 -282t100 -278t270 -107q129 0 281 45l20 -160q-152 -51 -311 -51q-264 0 -419 155q-155 156 -155 396zM348 1495h189l118 -217l119 217h189l-191 -317h-233z" />
<glyph unicode="&#x10e;" horiz-adv-x="1456" d="M172 0v1356h406q356 0 562 -176t206 -496t-212 -502t-556 -182h-406zM297 1735h207l119 -168l118 168h211l-211 -275h-237zM377 164h207q248 0 398 138t148 376q0 238 -149 376q-150 138 -397 138h-207v-1028z" />
<glyph unicode="&#x10f;" horiz-adv-x="1462" d="M111 524q0 260 150 408q151 147 344 147t349 -94v485h201v-1470h-180l-21 90q-147 -121 -347 -121q-200 -1 -348 147t-148 408zM313 524q1 -176 105 -281t244 -106q172 0 292 109v557q-121 109 -276 109t-260 -106t-105 -282zM1278 1106v399h201l-62 -399h-139z" />
<glyph unicode="&#x110;" horiz-adv-x="1456" d="M41 606v146h131v604h406q356 0 562 -176t206 -496t-212 -502t-556 -182h-406v606h-131zM377 164h207q248 0 398 138t148 376q0 238 -149 376q-150 138 -397 138h-207v-440h366v-146h-366v-442z" />
<glyph unicode="&#x111;" horiz-adv-x="1325" d="M111 524q0 260 150 408q151 147 344 147t349 -94v189h-379v145h379v151h201v-151h129v-145h-129v-1174h-180l-21 90q-147 -121 -347 -121q-200 -1 -348 147t-148 408zM313 524q1 -176 105 -281t244 -106q172 0 292 109v557q-121 109 -276 109t-260 -106t-105 -282z" />
<glyph unicode="&#x112;" horiz-adv-x="1204" d="M172 0v1356h911v-164h-706v-399h655v-164h-655v-465h717v-164h-922zM352 1505v156h551v-156h-551z" />
<glyph unicode="&#x113;" horiz-adv-x="1232" d="M111 518q0 250 146 406t392 155q178 0 296 -94t156 -231t9 -287h-793q17 -156 115 -244t262 -88t355 60l22 -158q-180 -68 -385 -68q-266 -1 -420 149t-155 400zM324 625h591q-6 135 -73 215q-68 80 -195 80t-213 -81t-110 -214zM358 1237v156h539v-156h-539z" />
<glyph unicode="&#x114;" horiz-adv-x="1204" d="M172 0v1356h911v-164h-706v-399h655v-164h-655v-465h717v-164h-922zM362 1735h158q2 -72 38 -112t95 -40t96 40q35 40 35 112h162q-2 -141 -83 -216t-210 -75t-209 75t-82 216z" />
<glyph unicode="&#x115;" horiz-adv-x="1232" d="M111 518q0 250 146 406t392 155q178 0 296 -94t156 -231t9 -287h-793q17 -156 115 -244t262 -88t355 60l22 -158q-180 -68 -385 -68q-266 -1 -420 149t-155 400zM324 625h591q-6 135 -73 215q-68 80 -195 80t-213 -81t-110 -214zM350 1477h154q0 -164 130 -164t130 164 h156q0 -145 -74 -225t-212 -81q-138 0 -211 80t-73 226z" />
<glyph unicode="&#x116;" horiz-adv-x="1204" d="M172 0v1356h911v-164h-706v-399h655v-164h-655v-465h717v-164h-922zM500 1597q0 59 29 89q30 28 103 28q72 0 102 -28t30 -88t-30 -89t-102 -29t-103 30q-30 28 -29 87z" />
<glyph unicode="&#x117;" horiz-adv-x="1232" d="M111 518q0 250 146 406t392 155q178 0 296 -94t156 -231t9 -287h-793q17 -156 115 -244t262 -88t355 60l22 -158q-180 -68 -385 -68q-266 -1 -420 149t-155 400zM324 625h591q-6 135 -73 215q-68 80 -195 80t-213 -81t-110 -214zM512 1323q0 57 28 85t101 28 q71 0 101 -28t30 -85t-30 -86t-102 -29t-100 29t-28 86z" />
<glyph unicode="&#x118;" horiz-adv-x="1204" d="M172 0v1356h911v-164h-706v-399h655v-164h-655v-465h717v-164h-23q-65 -47 -103 -102t-38 -97q0 -55 59 -55q39 0 105 27v-142q-206 -69 -301 15q-51 45 -52 114q0 127 150 240h-719z" />
<glyph unicode="&#x119;" horiz-adv-x="1232" d="M111 518q0 250 146 406t392 155q178 0 296 -94t156 -231t9 -287h-793q17 -156 115 -244t262 -88t355 60l22 -158q-63 -45 -105 -116t-42 -114q0 -55 59 -55q37 0 102 25v-139q-87 -33 -167 -33t-132 44q-51 44 -51 115q0 113 105 216q-92 -10 -154 -11q-266 -1 -420 149 t-155 400zM324 625h591q-6 135 -73 215q-68 80 -195 80t-213 -81t-110 -214z" />
<glyph unicode="&#x11a;" horiz-adv-x="1204" d="M172 0v1356h911v-164h-706v-399h655v-164h-655v-465h717v-164h-922zM311 1735h207l119 -168l119 168h211l-211 -275h-238z" />
<glyph unicode="&#x11b;" horiz-adv-x="1232" d="M111 518q0 250 146 406t392 155q178 0 296 -94t156 -231t9 -287h-793q17 -156 115 -244t262 -88t355 60l22 -158q-180 -68 -385 -68q-266 -1 -420 149t-155 400zM324 625h591q-6 135 -73 215q-68 80 -195 80t-213 -81t-110 -214zM332 1495h188l119 -217l119 217h188 l-190 -317h-234z" />
<glyph unicode="&#x11c;" horiz-adv-x="1386" d="M111 672q0 309 194 512q195 203 522 202q203 0 387 -57l-22 -168q-197 47 -338 47q-246 0 -387 -140t-141 -389t141 -389t387 -140q117 0 197 22v399h-326v164h530v-684q-207 -82 -428 -82q-332 0 -524 197t-192 506zM477 1460l207 275h238l211 -275h-211l-119 166 l-119 -166h-207z" />
<glyph unicode="&#x11d;" horiz-adv-x="1325" d="M111 553q0 246 150 386q151 140 344 140t349 -94l21 64h180v-1033q0 -236 -161 -335t-367 -99t-414 74l20 160q219 -68 376 -68t251 66t94 209v118q-143 -115 -345 -115t-350 141q-148 140 -148 386zM313 552q1 -165 105 -262t259 -97t277 104v504q-119 111 -292 110 q-139 0 -244 -97t-105 -262zM362 1178l191 317h235l191 -317h-188l-119 217l-119 -217h-191z" />
<glyph unicode="&#x11e;" horiz-adv-x="1386" d="M111 672q0 309 194 512q195 203 522 202q203 0 387 -57l-22 -168q-197 47 -338 47q-246 0 -387 -140t-141 -389t141 -389t387 -140q117 0 197 22v399h-326v164h530v-684q-207 -82 -428 -82q-332 0 -524 197t-192 506zM522 1735h158q2 -72 38 -112t95 -40t95 40t36 112 h162q-2 -141 -83 -216t-210 -75t-209 75t-82 216z" />
<glyph unicode="&#x11f;" horiz-adv-x="1325" d="M111 553q0 246 150 386q151 140 344 140t349 -94l21 64h180v-1033q0 -236 -161 -335t-367 -99t-414 74l20 160q219 -68 376 -68t251 66t94 209v118q-143 -115 -345 -115t-350 141q-148 140 -148 386zM313 552q1 -165 105 -262t259 -97t277 104v504q-119 111 -292 110 q-139 0 -244 -97t-105 -262zM377 1477h153q0 -164 130 -164t131 164h155q0 -145 -74 -225t-212 -81q-138 0 -210 80t-73 226z" />
<glyph unicode="&#x120;" horiz-adv-x="1386" d="M111 672q0 309 194 512q195 203 522 202q203 0 387 -57l-22 -168q-197 47 -338 47q-246 0 -387 -140t-141 -389t141 -389t387 -140q117 0 197 22v399h-326v164h530v-684q-207 -82 -428 -82q-332 0 -524 197t-192 506zM670 1597q0 59 29 89q30 28 103 28q72 0 102 -28 t30 -88t-30 -89t-102 -29t-103 30q-30 28 -29 87z" />
<glyph unicode="&#x121;" horiz-adv-x="1325" d="M111 553q0 246 150 386q151 140 344 140t349 -94l21 64h180v-1033q0 -236 -161 -335t-367 -99t-414 74l20 160q219 -68 376 -68t251 66t94 209v118q-143 -115 -345 -115t-350 141q-148 140 -148 386zM313 552q1 -165 105 -262t259 -97t277 104v504q-119 111 -292 110 q-139 0 -244 -97t-105 -262zM532 1323q0 57 29 85t101 28t102 -28t29 -85q0 -57 -30 -86q-29 -29 -101 -29t-101 29t-29 86z" />
<glyph unicode="&#x122;" horiz-adv-x="1386" d="M111 672q0 309 194 512q195 203 522 202q203 0 387 -57l-22 -168q-197 47 -338 47q-246 0 -387 -140t-141 -389t141 -389t387 -140q117 0 197 22v399h-326v164h530v-684q-207 -82 -428 -82q-332 0 -524 197t-192 506zM659 -373l50 285h219l-117 -285h-152z" />
<glyph unicode="&#x123;" horiz-adv-x="1325" d="M111 553q0 246 150 386q151 140 344 140t349 -94l21 64h180v-1033q0 -236 -161 -335t-367 -99t-414 74l20 160q219 -68 376 -68t251 66t94 209v118q-143 -115 -345 -115t-350 141q-148 140 -148 386zM313 552q1 -165 105 -262t259 -97t277 104v504q-119 111 -292 110 q-139 0 -244 -97t-105 -262zM496 1178l116 282h154l-49 -282h-221z" />
<glyph unicode="&#x124;" horiz-adv-x="1486" d="M172 0v1356h205v-555h733v555h205v-1356h-205v637h-733v-637h-205zM414 1460l207 275h237l211 -275h-211l-119 166l-118 -166h-207z" />
<glyph unicode="&#x125;" d="M172 0v1460h199v-502q181 121 371 121q190 -1 300 -109t109 -335v-635h-201v635q0 145 -68 211q-69 66 -182 65q-172 0 -329 -108v-803h-199zM233 1536l201 262h225l203 -262h-196l-119 154l-117 -154h-197z" />
<glyph unicode="&#x126;" horiz-adv-x="1486" d="M27 1001v146h145v209h205v-209h733v209h205v-209h145v-146h-145v-1001h-205v637h-733v-637h-205v1001h-145zM377 801h733v200h-733v-200z" />
<glyph unicode="&#x127;" d="M27 1169v144h145v147h199v-147h364v-144h-364v-211q181 121 371 121q190 -1 300 -109t109 -335v-635h-201v635q0 145 -68 211q-69 66 -182 65q-172 0 -329 -108v-803h-199v1169h-145z" />
<glyph unicode="&#x128;" horiz-adv-x="548" d="M-25 1620q78 80 150 80t163 -48t144 -48t135 92l8 -174q-79 -78 -149 -78t-166 46t-129 46q-66 0 -145 -92zM172 0v1356h205v-1356h-205z" />
<glyph unicode="&#x129;" horiz-adv-x="542" d="M-33 1366q76 82 149 82t170 -49t151 -49t134 92l11 -172q-78 -80 -150 -80t-174 47t-133 47q-72 0 -150 -90zM172 0v1049h199v-1049h-199z" />
<glyph unicode="&#x12a;" horiz-adv-x="548" d="M-2 1505v156h551v-156h-551zM172 0v1356h205v-1356h-205z" />
<glyph unicode="&#x12b;" horiz-adv-x="542" d="M4 1237v156h539v-156h-539zM172 0v1049h199v-1049h-199z" />
<glyph unicode="&#x12c;" horiz-adv-x="548" d="M-18 1735h157q2 -72 38 -112t95 -40t96 40q35 40 35 112h162q-2 -141 -83 -216t-210 -75t-209 75t-81 216zM172 0v1356h205v-1356h-205z" />
<glyph unicode="&#x12d;" horiz-adv-x="542" d="M-12 1477h153q0 -164 130 -164t130 164h156q0 -145 -74 -225t-212 -81q-138 0 -211 80t-72 226zM172 0v1049h199v-1049h-199z" />
<glyph unicode="&#x12e;" horiz-adv-x="548" d="M39 -240q0 127 149 240h-16v1356h205v-1356h-8q-66 -47 -104 -102t-38 -97q0 -55 60 -55q39 0 104 27v-142q-204 -69 -301 15q-51 45 -51 114z" />
<glyph unicode="&#x12f;" horiz-adv-x="542" d="M43 -240q0 127 150 240h-21v1049h199v-1049h2q-66 -47 -104 -102t-38 -97q0 -55 60 -55q39 0 104 27v-142q-204 -69 -301 15q-51 45 -51 114zM141 1323q-1 57 29 85t102 28t101 -28t29 -85t-30 -86q-28 -29 -100 -29t-102 29t-29 86z" />
<glyph unicode="&#x130;" horiz-adv-x="548" d="M139 1597q-1 59 29 88t103 29t103 -28t30 -88t-30 -89t-103 -29t-103 30q-30 28 -29 87zM172 0v1356h205v-1356h-205z" />
<glyph unicode="&#x131;" horiz-adv-x="542" d="M172 0v1049h199v-1049h-199z" />
<glyph unicode="&#x132;" horiz-adv-x="1286" d="M172 0v1356h205v-1356h-205zM565 0l23 166q88 -18 151 -19q170 0 170 181v1028h205v-1012q0 -199 -83 -287t-225 -88t-241 31z" />
<glyph unicode="&#x133;" horiz-adv-x="1136" d="M141 1323q-1 57 29 85t102 28t101 -28t29 -85t-30 -86q-28 -29 -100 -29t-102 29t-29 86zM172 0v1049h199v-1049h-199zM524 -393l21 155q127 -25 174 0t47 105v1182h199v-1192q0 -177 -120 -239t-321 -11zM735 1323q-1 57 29 85t102 28t101 -28t29 -85t-30 -86 q-28 -29 -100 -29t-102 29t-29 86z" />
<glyph unicode="&#x134;" horiz-adv-x="790" d="M63 1460l207 275h238l211 -275h-211l-119 166l-119 -166h-207zM70 0l22 166q88 -18 152 -19q170 0 170 181v1028h204v-1012q0 -199 -82 -287t-226 -88q-142 0 -240 31z" />
<glyph unicode="&#x135;" horiz-adv-x="542" d="M-88 1178l190 317h236l190 -317h-188l-119 217l-119 -217h-190zM-70 -393l21 155q127 -25 174 0t47 105v1182h199v-1192q0 -177 -120 -239t-321 -11z" />
<glyph unicode="&#x136;" horiz-adv-x="1388" d="M172 0v1356h205v-1356h-205zM428 709l612 647h254l-614 -631v-8l655 -717h-268zM559 -373l49 285h219l-116 -285h-152z" />
<glyph unicode="&#x137;" horiz-adv-x="1251" d="M172 0v1470h199v-1470h-199zM422 549l469 500h248l-469 -484v-8l508 -557h-260zM492 -373l49 285h219l-117 -285h-151z" />
<glyph unicode="&#x139;" horiz-adv-x="1138" d="M172 0v1356h205v-1192h692v-164h-897zM174 1450l182 287h260l-266 -287h-176z" />
<glyph unicode="&#x13a;" horiz-adv-x="542" d="M172 0v1470h199v-1470h-199zM174 1552l162 226h260l-244 -226h-178z" />
<glyph unicode="&#x13b;" horiz-adv-x="1138" d="M172 0v1356h205v-1192h692v-164h-897zM479 -373l49 285h220l-117 -285h-152z" />
<glyph unicode="&#x13c;" horiz-adv-x="542" d="M113 -373l49 285h219l-117 -285h-151zM172 0v1470h199v-1470h-199z" />
<glyph unicode="&#x13d;" horiz-adv-x="1138" d="M172 0v1356h205v-1192h692v-164h-897zM555 1073v385h211l-64 -385h-147z" />
<glyph unicode="&#x13e;" horiz-adv-x="677" d="M172 0v1470h199v-1470h-199zM496 1106v399h200l-61 -399h-139z" />
<glyph unicode="&#x13f;" horiz-adv-x="1138" d="M172 0v1356h205v-1192h692v-164h-897zM588 680q0 66 32 98t114 31q81 0 113 -32q32 -33 32 -99t-33 -98t-113 -31q-81 0 -113 32q-32 33 -32 99z" />
<glyph unicode="&#x140;" horiz-adv-x="811" d="M172 0v1470h199v-1470h-199zM502 680q0 66 32 98t114 31q81 0 113 -32q32 -33 32 -99t-33 -98t-113 -31q-81 0 -113 32q-32 33 -32 99z" />
<glyph unicode="&#x141;" horiz-adv-x="1138" d="M0 285v204l172 138v729h205v-568l332 265v-207l-332 -264v-418h692v-164h-897v420z" />
<glyph unicode="&#x142;" horiz-adv-x="542" d="M29 465v199l143 110v696h199v-542l145 112v-198l-145 -113v-729h-199v575z" />
<glyph unicode="&#x143;" horiz-adv-x="1484" d="M172 0v1356h262l676 -1094h8v1094h197v-1356h-262l-676 1094h-8v-1094h-197zM602 1450l182 287h260l-266 -287h-176z" />
<glyph unicode="&#x144;" d="M172 0v1049h178l21 -91q181 121 371 121q190 -1 300 -109t109 -335v-635h-201v635q0 145 -68 211q-69 66 -182 65q-172 0 -329 -108v-803h-199zM571 1178l164 317h248l-244 -317h-168z" />
<glyph unicode="&#x145;" horiz-adv-x="1484" d="M172 0v1356h262l676 -1094h8v1094h197v-1356h-262l-676 1094h-8v-1094h-197zM612 -373l50 285h219l-117 -285h-152z" />
<glyph unicode="&#x146;" d="M172 0v1049h178l21 -91q181 121 371 121q190 -1 300 -109t109 -335v-635h-201v635q0 145 -68 211q-69 66 -182 65q-172 0 -329 -108v-803h-199zM516 -373l49 285h219l-116 -285h-152z" />
<glyph unicode="&#x147;" horiz-adv-x="1484" d="M172 0v1356h262l676 -1094h8v1094h197v-1356h-262l-676 1094h-8v-1094h-197zM414 1735h207l118 -168l119 168h211l-211 -275h-237z" />
<glyph unicode="&#x148;" d="M172 0v1049h178l21 -91q181 121 371 121q190 -1 300 -109t109 -335v-635h-201v635q0 145 -68 211q-69 66 -182 65q-172 0 -329 -108v-803h-199zM352 1495h189l118 -217l119 217h189l-191 -317h-233z" />
<glyph unicode="&#x14c;" horiz-adv-x="1589" d="M111 678q0 309 190 509q191 199 493 199t493 -200t191 -508q0 -309 -190 -509q-192 -200 -494 -200t-493 200q-190 200 -190 509zM328 678q0 -236 131 -388t336 -151q205 0 335 152q130 151 132 387q0 236 -132 388t-336 153q-204 -1 -335 -153t-131 -388zM518 1505v156 h551v-156h-551z" />
<glyph unicode="&#x14d;" horiz-adv-x="1337" d="M111 524q0 242 155 399q156 157 403 157t403 -158q156 -156 155 -398q0 -242 -156 -398q-157 -156 -403 -157q-246 1 -402 157t-155 398zM324 524q0 -170 97 -280t249 -111q152 0 249 111q97 110 97 280t-97 281t-249 111t-249 -112q-97 -110 -97 -280zM399 1237v156h539 v-156h-539z" />
<glyph unicode="&#x14e;" horiz-adv-x="1589" d="M111 678q0 309 190 509q191 199 493 199t493 -200t191 -508q0 -309 -190 -509q-192 -200 -494 -200t-493 200q-190 200 -190 509zM328 678q0 -236 131 -388t336 -151q205 0 335 152q130 151 132 387q0 236 -132 388t-336 153q-204 -1 -335 -153t-131 -388zM500 1735h157 q2 -72 38 -112q35 -40 95 -40t96 40t36 112h161q-2 -141 -83 -216q-82 -75 -210 -75t-208 75t-82 216z" />
<glyph unicode="&#x14f;" horiz-adv-x="1337" d="M111 524q0 242 155 399q156 157 403 157t403 -158q156 -156 155 -398q0 -242 -156 -398q-157 -156 -403 -157q-246 1 -402 157t-155 398zM324 524q0 -170 97 -280t249 -111q152 0 249 111q97 110 97 280t-97 281t-249 111t-249 -112q-97 -110 -97 -280zM383 1477h154 q0 -164 130 -164t130 164h155q0 -145 -73 -226q-74 -80 -212 -80t-211 80t-73 226z" />
<glyph unicode="&#x150;" horiz-adv-x="1589" d="M111 678q0 309 190 509q191 199 493 199t493 -200t191 -508q0 -309 -190 -509q-192 -200 -494 -200t-493 200q-190 200 -190 509zM328 678q0 -236 131 -388t336 -151q205 0 335 152q130 151 132 387q0 236 -132 388t-336 153q-204 -1 -335 -153t-131 -388zM512 1452 l170 283h254l-246 -283h-178zM860 1452l168 283h260l-252 -283h-176z" />
<glyph unicode="&#x151;" horiz-adv-x="1337" d="M111 524q0 242 155 399q156 157 403 157t403 -158q156 -156 155 -398q0 -242 -156 -398q-157 -156 -403 -157q-246 1 -402 157t-155 398zM324 524q0 -170 97 -280t249 -111q152 0 249 111q97 110 97 280t-97 281t-249 111t-249 -112q-97 -110 -97 -280zM397 1178l160 317 h248l-238 -317h-170zM733 1178l160 317h248l-240 -317h-168z" />
<glyph unicode="&#x152;" horiz-adv-x="2025" d="M111 672q0 309 190 512t514 202q131 0 277 -30h813v-164h-707v-399h655v-164h-655v-465h717v-164h-823q-145 -31 -277 -31q-328 0 -516 197t-188 506zM326 677q0 -251 138 -389t378 -138q88 0 151 10v1036q-80 12 -151 12q-240 0 -378 -140t-138 -391z" />
<glyph unicode="&#x153;" horiz-adv-x="2138" d="M111 524q0 242 155 399q156 157 404 156q291 0 448 -211q152 211 436 211q178 0 296 -94t156 -231t9 -287h-792q16 -156 114 -244q99 -88 263 -88t354 60l22 -158q-180 -68 -385 -68q-322 0 -475 209q-160 -209 -446 -209q-248 1 -404 157t-155 398zM324 524 q0 -170 97 -280t245 -111q148 1 246 105q97 104 104 268v18q0 170 -97 281t-249 111t-249 -112q-97 -110 -97 -280zM1229 625h592q-6 135 -74 215t-195 80t-213 -81t-110 -214z" />
<glyph unicode="&#x154;" horiz-adv-x="1337" d="M172 0v1356h600q211 0 329 -123t118 -279q-1 -156 -89 -262t-243 -139l-2 -8l385 -545h-248l-363 526h-282v-526h-205zM377 690h323q147 0 226 70q78 70 78 180t-72 182q-72 70 -197 70h-358v-502zM500 1450l182 287h260l-266 -287h-176z" />
<glyph unicode="&#x155;" horiz-adv-x="851" d="M172 0v1049h178l23 -146q127 201 444 172l-20 -180q-175 16 -265 -30t-161 -154v-711h-199zM408 1178l163 317h248l-244 -317h-167z" />
<glyph unicode="&#x156;" horiz-adv-x="1337" d="M172 0v1356h600q211 0 329 -123t118 -279q-1 -156 -89 -262t-243 -139l-2 -8l385 -545h-248l-363 526h-282v-526h-205zM377 690h323q147 0 226 70q78 70 78 180t-72 182q-72 70 -197 70h-358v-502zM535 -373l49 285h219l-117 -285h-151z" />
<glyph unicode="&#x157;" horiz-adv-x="851" d="M121 -373l49 285h219l-117 -285h-151zM172 0v1049h178l23 -146q127 201 444 172l-20 -180q-175 16 -265 -30t-161 -154v-711h-199z" />
<glyph unicode="&#x158;" horiz-adv-x="1337" d="M172 0v1356h600q211 0 329 -123t118 -279q-1 -156 -89 -262t-243 -139l-2 -8l385 -545h-248l-363 526h-282v-526h-205zM297 1735h207l119 -168l118 168h211l-211 -275h-237zM377 690h323q147 0 226 70q78 70 78 180t-72 182q-72 70 -197 70h-358v-502z" />
<glyph unicode="&#x159;" horiz-adv-x="851" d="M172 0v1049h178l23 -146q127 201 444 172l-20 -180q-175 16 -265 -30t-161 -154v-711h-199zM201 1495h188l119 -217l119 217h188l-190 -317h-234z" />
<glyph unicode="&#x15a;" horiz-adv-x="1245" d="M111 987q0 203 134 301t355 98t471 -77l-22 -168q-213 69 -393 69t-256 -47q-74 -47 -74 -170t160 -176q71 -23 157 -41q212 -44 331 -108q71 -39 116 -115t45 -184q-1 -203 -143 -301t-382 -98t-497 100l22 166q243 -90 433 -90t271 46q81 47 81 170q0 78 -60 126 t-150 66q-88 18 -194 48q-106 29 -195 63t-150 116q-60 83 -60 206zM512 1450l182 287h260l-266 -287h-176z" />
<glyph unicode="&#x15b;" horiz-adv-x="1038" d="M90 766q0 160 116 236t312 77q196 0 381 -65l-22 -156q-233 57 -351 57q-232 1 -233 -133q0 -122 166 -151t319 -88q74 -29 122 -96t48 -164q0 -150 -121 -232t-329 -82t-404 76l23 156q211 -68 385 -68q243 1 243 148q0 61 -67 95q-68 34 -164 54t-192 48t-164 100 t-68 188zM403 1178l164 317h248l-244 -317h-168z" />
<glyph unicode="&#x15c;" horiz-adv-x="1245" d="M111 987q0 203 134 301t355 98t471 -77l-22 -168q-213 69 -393 69t-256 -47q-74 -47 -74 -170t160 -176q71 -23 157 -41q212 -44 331 -108q71 -39 116 -115t45 -184q-1 -203 -143 -301t-382 -98t-497 100l22 166q243 -90 433 -90t271 46q81 47 81 170q0 78 -60 126 t-150 66q-88 18 -194 48q-106 29 -195 63t-150 116q-60 83 -60 206zM289 1460l207 275h237l211 -275h-211l-119 166l-118 -166h-207z" />
<glyph unicode="&#x15d;" horiz-adv-x="1038" d="M90 766q0 160 116 236t312 77q196 0 381 -65l-22 -156q-233 57 -351 57q-232 1 -233 -133q0 -122 166 -151t319 -88q74 -29 122 -96t48 -164q0 -150 -121 -232t-329 -82t-404 76l23 156q211 -68 385 -68q243 1 243 148q0 61 -67 95q-68 34 -164 54t-192 48t-164 100 t-68 188zM207 1178l190 317h236l190 -317h-188l-119 217l-119 -217h-190z" />
<glyph unicode="&#x15e;" horiz-adv-x="1245" d="M111 987q0 203 134 301t355 98t471 -77l-22 -168q-213 69 -393 69t-256 -47q-74 -47 -74 -170t160 -176q71 -23 157 -41q212 -44 331 -108q71 -39 116 -115t45 -184q0 -189 -125 -287t-330 -111l-21 -57q49 -6 87 -42t38 -95q1 -187 -325 -187v134q90 -2 128 11t38 46 q0 55 -138 45l33 147q-201 16 -407 97l22 166q243 -90 433 -90t271 46q81 48 81 170q0 78 -60 126t-150 66q-88 18 -194 48q-106 29 -195 63t-150 116q-60 83 -60 206z" />
<glyph unicode="&#x15f;" horiz-adv-x="1038" d="M90 766q0 160 116 236t312 77q196 0 381 -65l-22 -156q-233 57 -351 57q-232 1 -233 -133q0 -122 166 -151t319 -88q74 -29 122 -96t48 -164q0 -137 -103 -218t-270 -94l-20 -57q49 -6 87 -42t38 -95q0 -187 -326 -187v134q90 -2 128 11t38 46q0 55 -137 45l33 147 q-186 18 -322 72l23 156q211 -68 385 -68q244 0 243 148q0 61 -67 95q-68 34 -164 54t-192 48t-164 100t-68 188z" />
<glyph unicode="&#x160;" horiz-adv-x="1245" d="M111 987q0 203 134 301t355 98t471 -77l-22 -168q-213 69 -393 69t-256 -47q-74 -47 -74 -170t160 -176q71 -23 157 -41q212 -44 331 -108q71 -39 116 -115t45 -184q-1 -203 -143 -301t-382 -98t-497 100l22 166q243 -90 433 -90t271 46q81 47 81 170q0 78 -60 126 t-150 66q-88 18 -194 48q-106 29 -195 63t-150 116q-60 83 -60 206zM289 1735h207l118 -168l119 168h211l-211 -275h-237z" />
<glyph unicode="&#x161;" horiz-adv-x="1038" d="M90 766q0 160 116 236t312 77q196 0 381 -65l-22 -156q-233 57 -351 57q-232 1 -233 -133q0 -122 166 -151t319 -88q74 -29 122 -96t48 -164q0 -150 -121 -232t-329 -82t-404 76l23 156q211 -68 385 -68q243 1 243 148q0 61 -67 95q-68 34 -164 54t-192 48t-164 100 t-68 188zM203 1495h188l119 -217l119 217h188l-190 -317h-234z" />
<glyph unicode="&#x162;" horiz-adv-x="1214" d="M49 1190v166h1116v-166h-456v-1190h-17l-30 -86q49 -6 87 -42t37 -95q1 -187 -325 -187v134q90 -2 128 11t38 46q0 55 -138 45l39 174h-24v1190h-455z" />
<glyph unicode="&#x163;" horiz-adv-x="774" d="M90 889v139l164 21l25 262h174v-262h245v-160h-245v-623q0 -86 52 -108t193 4l21 -156q-61 -14 -135 -20l-25 -72q49 -6 87 -42t38 -95q0 -187 -326 -187v134q90 -2 128 11t38 46q0 55 -137 45l37 168q-170 43 -170 260v635h-164z" />
<glyph unicode="&#x164;" horiz-adv-x="1214" d="M49 1190v166h1116v-166h-456v-1190h-205v1190h-455zM281 1735h206l119 -168l119 168h211l-211 -275h-238z" />
<glyph unicode="&#x165;" horiz-adv-x="798" d="M90 889v139l164 21l25 262h174v-262h245v-160h-245v-623q0 -86 52 -108t193 4l21 -156q-133 -26 -237 -22t-166 70q-62 67 -62 200v635h-164zM559 1180v389h199l-62 -389h-137z" />
<glyph unicode="&#x166;" horiz-adv-x="1214" d="M49 1190v166h1116v-166h-456v-449h254v-166h-254v-575h-205v575h-254v166h254v449h-455z" />
<glyph unicode="&#x167;" horiz-adv-x="774" d="M90 455v145h164v289h-164v139l164 21l25 262h174v-262h245v-160h-245v-289h245v-145h-245v-189q0 -86 52 -108t193 4l21 -156q-133 -26 -237 -22t-166 70q-62 67 -62 200v201h-164z" />
<glyph unicode="&#x168;" horiz-adv-x="1486" d="M172 530v826h205v-828q0 -209 104 -299t263 -90t263 90q103 90 103 299v828h205v-826q0 -420 -362 -531q-97 -30 -210 -30q-225 0 -391 123q-84 64 -132 176t-48 262zM442 1620q78 80 150 80t163 -48t144 -48t135 92l8 -174q-78 -78 -148 -78t-167 46q-96 46 -129 46 q-66 0 -145 -92z" />
<glyph unicode="&#x169;" d="M172 414v635h199v-635q0 -276 252 -277q174 0 327 109v803h201v-1049h-180l-21 90q-174 -121 -387 -121q-171 0 -281 109t-110 336zM354 1366q76 82 149 82t170 -49t151 -49t134 92l11 -172q-78 -80 -150 -80t-174 47t-133 47q-72 0 -150 -90z" />
<glyph unicode="&#x16a;" horiz-adv-x="1486" d="M172 530v826h205v-828q0 -209 104 -299t263 -90t263 90q103 90 103 299v828h205v-826q0 -420 -362 -531q-97 -30 -210 -30q-225 0 -391 123q-84 64 -132 176t-48 262zM467 1505v156h551v-156h-551z" />
<glyph unicode="&#x16b;" d="M172 414v635h199v-635q0 -276 252 -277q174 0 327 109v803h201v-1049h-180l-21 90q-174 -121 -387 -121q-171 0 -281 109t-110 336zM391 1237v156h539v-156h-539z" />
<glyph unicode="&#x16c;" horiz-adv-x="1486" d="M172 530v826h205v-828q0 -209 104 -299t263 -90t263 90q103 90 103 299v828h205v-826q0 -420 -362 -531q-97 -30 -210 -30q-225 0 -391 123q-84 64 -132 176t-48 262zM449 1735h157q2 -72 38 -112t95 -40t96 40q35 40 35 112h162q-2 -141 -83 -216t-210 -75t-209 75 t-81 216z" />
<glyph unicode="&#x16d;" d="M172 414v635h199v-635q0 -276 252 -277q174 0 327 109v803h201v-1049h-180l-21 90q-174 -121 -387 -121q-171 0 -281 109t-110 336zM387 1477h154q0 -164 130 -164t130 164h155q0 -145 -73 -226q-74 -80 -212 -80t-211 80t-73 226z" />
<glyph unicode="&#x16e;" horiz-adv-x="1486" d="M172 530v826h205v-828q0 -209 104 -299t263 -90t263 90q103 90 103 299v828h205v-826q0 -420 -362 -531q-97 -30 -210 -30q-225 0 -391 123q-84 64 -132 176t-48 262zM500 1580q0 106 66 166q67 60 173 60t175 -60t69 -166t-69 -164q-70 -60 -176 -60t-172 59t-66 165z M637 1580q0 -103 104 -103t105 104q-1 102 -105 102t-104 -103z" />
<glyph unicode="&#x16f;" d="M172 414v635h199v-635q0 -276 252 -277q174 0 327 109v803h201v-1049h-180l-21 90q-174 -121 -387 -121q-171 0 -281 109t-110 336zM430 1332q0 106 68 162t178 56t178 -56q70 -56 70 -162t-68 -162t-180 -56q-110 0 -178 56t-68 162zM569 1333q0 -106 107 -106 q51 -1 80 27t28 79q1 105 -108 105q-49 0 -78 -28t-29 -77z" />
<glyph unicode="&#x170;" horiz-adv-x="1486" d="M172 530v826h205v-828q0 -209 104 -299t263 -90t263 90q103 90 103 299v828h205v-826q0 -420 -362 -531q-97 -30 -210 -30q-225 0 -391 123q-84 64 -132 176t-48 262zM426 1452l170 283h254l-246 -283h-178zM774 1452l168 283h260l-252 -283h-176z" />
<glyph unicode="&#x171;" d="M172 414v635h199v-635q0 -276 252 -277q174 0 327 109v803h201v-1049h-180l-21 90q-174 -121 -387 -121q-171 0 -281 109t-110 336zM350 1178l160 317h248l-238 -317h-170zM686 1178l160 317h248l-240 -317h-168z" />
<glyph unicode="&#x172;" horiz-adv-x="1486" d="M172 530v826h205v-828q0 -209 104 -299t263 -90t263 90q103 90 103 299v828h205v-826q1 -221 -99 -351t-262 -179q-66 -47 -102 -102t-37 -97q0 -55 59 -55q39 0 105 27v-142q-206 -69 -301 15q-51 45 -51 114q0 109 112 209q-226 0 -389 125q-82 62 -130 174t-48 262z " />
<glyph unicode="&#x173;" d="M172 414v635h199v-635q0 -276 252 -277q174 0 327 109v803h201v-1049h-2q-65 -47 -103 -102t-38 -97q0 -55 59 -55q39 0 104 27v-142q-204 -69 -301 15q-51 45 -51 114q0 129 152 240l-21 90q-174 -121 -387 -121q-171 0 -281 109t-110 336z" />
<glyph unicode="&#x174;" horiz-adv-x="2004" d="M33 1356h211l311 -1163h8l311 1163h265l311 -1163h6l311 1163h203l-389 -1356h-264l-309 1149h-9l-311 -1149h-264zM674 1460l207 275h237l211 -275h-211l-119 166l-118 -166h-207z" />
<glyph unicode="&#x175;" horiz-adv-x="1677" d="M49 1049h213l221 -885h6l230 885h248l229 -885h6l223 885h203l-301 -1049h-264l-221 852h-6l-222 -852h-264zM526 1178l191 317h235l191 -317h-189l-118 217l-119 -217h-191z" />
<glyph unicode="&#x176;" horiz-adv-x="1312" d="M33 1356h254l370 -594h9l376 594h236l-520 -785v-571h-205v559zM328 1460l207 275h237l211 -275h-211l-119 166l-118 -166h-207z" />
<glyph unicode="&#x177;" horiz-adv-x="1187" d="M49 1049h217l328 -863h8l328 863h209l-568 -1436h-209l156 387h-55zM283 1178l190 317h236l190 -317h-188l-119 217l-119 -217h-190z" />
<glyph unicode="&#x178;" horiz-adv-x="1312" d="M33 1356h254l370 -594h9l376 594h236l-520 -785v-571h-205v559zM311 1597q-1 59 29 88t103 29t103 -28t30 -88t-30 -89t-103 -29t-103 30q-30 28 -29 87zM735 1597q-1 59 29 88t103 29t103 -28t30 -88t-30 -89t-103 -29t-103 30q-30 28 -29 87z" />
<glyph unicode="&#x179;" horiz-adv-x="1204" d="M70 0v162l786 1022v8h-766v164h1024v-162l-786 -1022v-8h807v-164h-1065zM446 1450l183 287h260l-266 -287h-177z" />
<glyph unicode="&#x17a;" horiz-adv-x="1040" d="M70 0v158l628 723v8h-608v160h860v-158l-628 -723v-8h649v-160h-901zM399 1178l164 317h248l-244 -317h-168z" />
<glyph unicode="&#x17b;" horiz-adv-x="1204" d="M70 0v162l786 1022v8h-766v164h1024v-162l-786 -1022v-8h807v-164h-1065zM467 1597q-1 59 29 88t103 29t103 -28t29 -88q0 -60 -30 -89q-31 -29 -103 -29t-102 30q-30 28 -29 87z" />
<glyph unicode="&#x17c;" horiz-adv-x="1040" d="M70 0v158l628 723v8h-608v160h860v-158l-628 -723v-8h649v-160h-901zM391 1323q1 57 29 85t100 28t102 -28t30 -85t-30 -86t-102 -29t-100 29t-29 86z" />
<glyph unicode="&#x17d;" horiz-adv-x="1204" d="M70 0v162l786 1022v8h-766v164h1024v-162l-786 -1022v-8h807v-164h-1065zM274 1735h207l119 -168l119 168h211l-211 -275h-238z" />
<glyph unicode="&#x17e;" horiz-adv-x="1040" d="M70 0v158l628 723v8h-608v160h860v-158l-628 -723v-8h649v-160h-901zM211 1495h188l119 -217l119 217h188l-190 -317h-234z" />
<glyph unicode="&#x192;" horiz-adv-x="1013" d="M90 -10l21 151q98 -10 156 -11t90 29q32 29 41 65t10 100v381h-252v157h252v187q0 201 67 302q68 101 258 101q78 0 191 -20l-21 -154q-111 26 -217 0q-55 -13 -74 -99q-6 -32 -6 -83v-234h293v-157h-293v-332q0 -203 -66 -303t-259 -101q-94 0 -191 21z" />
<glyph unicode="&#x218;" horiz-adv-x="1245" d="M111 987q0 203 134 301t355 98t471 -77l-22 -168q-213 69 -393 69t-256 -47q-74 -47 -74 -170t160 -176q71 -23 157 -41q212 -44 331 -108q71 -39 116 -115t45 -184q-1 -203 -143 -301t-382 -98t-497 100l22 166q243 -90 433 -90t271 46q81 47 81 170q0 78 -60 126 t-150 66q-88 18 -194 48q-106 29 -195 63t-150 116q-60 83 -60 206zM471 -373l49 285h219l-116 -285h-152z" />
<glyph unicode="&#x219;" horiz-adv-x="1038" d="M90 766q0 160 116 236t312 77q196 0 381 -65l-22 -156q-233 57 -351 57q-232 1 -233 -133q0 -122 166 -151t319 -88q74 -29 122 -96t48 -164q0 -150 -121 -232t-329 -82t-404 76l23 156q211 -68 385 -68q243 1 243 148q0 61 -67 95q-68 34 -164 54t-192 48t-164 100 t-68 188zM367 -373l49 285h219l-117 -285h-151z" />
<glyph unicode="&#x21a;" horiz-adv-x="1214" d="M49 1190v166h1116v-166h-456v-1190h-205v1190h-455zM449 -373l49 285h219l-117 -285h-151z" />
<glyph unicode="&#x21b;" horiz-adv-x="774" d="M90 889v139l164 21l25 262h174v-262h245v-160h-245v-623q0 -86 52 -108t193 4l21 -156q-133 -26 -237 -22t-166 70q-62 67 -62 200v635h-164zM354 -373l49 285h220l-117 -285h-152z" />
<glyph unicode="&#x2c6;" horiz-adv-x="890" d="M135 1178l191 317h235l191 -317h-189l-119 217l-118 -217h-191z" />
<glyph unicode="&#x2c7;" horiz-adv-x="890" d="M137 1495h189l118 -217l119 217h189l-191 -317h-233z" />
<glyph unicode="&#x2d8;" horiz-adv-x="831" d="M131 1477h154q0 -164 130 -164t130 164h155q0 -145 -73 -226q-74 -80 -212 -80t-211 80t-73 226z" />
<glyph unicode="&#x2d9;" horiz-adv-x="542" d="M141 1323q1 57 29 85t100 28t102 -28t30 -85t-30 -86t-102 -29t-100 29t-29 86z" />
<glyph unicode="&#x2da;" horiz-adv-x="745" d="M127 1332q0 106 68 162q67 56 177 56t180 -56t69 -162t-69 -162t-179 -56t-179 56t-67 162zM266 1333q0 -106 107 -106q51 -1 80 27t28 79q1 105 -108 105q-49 0 -78 -28t-29 -77z" />
<glyph unicode="&#x2db;" horiz-adv-x="612" d="M131 -240q0 137 172 256l158 -16q-66 -47 -104 -102t-38 -97q0 -55 60 -55q39 0 104 27v-142q-204 -69 -301 15q-51 45 -51 114z" />
<glyph unicode="&#x2dc;" horiz-adv-x="874" d="M131 1366q76 82 149 82t170 -49t151 -49t134 92l10 -172q-77 -80 -149 -80t-174 47t-133 47q-72 0 -150 -90z" />
<glyph unicode="&#x2dd;" horiz-adv-x="1034" d="M145 1178l160 317h248l-238 -317h-170zM481 1178l160 317h248l-240 -317h-168z" />
<glyph unicode="&#x394;" horiz-adv-x="1423" d="M33 0l547 1356h264l545 -1356h-1356zM307 164h799l-395 1024h-6z" />
<glyph unicode="&#x3a9;" horiz-adv-x="1683" d="M111 0v164h317v8q-119 96 -198 236t-78 315q0 315 190 501t500 185q310 0 499 -185q190 -185 191 -501q0 -174 -79 -314t-198 -237v-8h318v-164h-533v166q152 139 213 264t62 281q0 244 -132 387t-341 143t-340 -143t-131 -387q0 -158 60 -282t212 -263v-166h-532z" />
<glyph unicode="&#x3c0;" horiz-adv-x="1445" d="M90 889v160h1266v-160h-180v-889h-199v889h-508v-889h-201v889h-178z" />
<glyph unicode="&#x1e80;" horiz-adv-x="2004" d="M33 1356h211l311 -1163h8l311 1163h265l311 -1163h6l311 1163h203l-389 -1356h-264l-309 1149h-9l-311 -1149h-264zM670 1737h260l178 -287h-176z" />
<glyph unicode="&#x1e81;" horiz-adv-x="1677" d="M49 1049h213l221 -885h6l230 885h248l229 -885h6l223 885h203l-301 -1049h-264l-221 852h-6l-222 -852h-264zM514 1495h248l164 -317h-168z" />
<glyph unicode="&#x1e82;" horiz-adv-x="2004" d="M33 1356h211l311 -1163h8l311 1163h265l311 -1163h6l311 1163h203l-389 -1356h-264l-309 1149h-9l-311 -1149h-264zM918 1450l182 287h260l-266 -287h-176z" />
<glyph unicode="&#x1e83;" horiz-adv-x="1677" d="M49 1049h213l221 -885h6l230 885h248l229 -885h6l223 885h203l-301 -1049h-264l-221 852h-6l-222 -852h-264zM764 1178l164 317h248l-244 -317h-168z" />
<glyph unicode="&#x1e84;" horiz-adv-x="2004" d="M33 1356h211l311 -1163h8l311 1163h265l311 -1163h6l311 1163h203l-389 -1356h-264l-309 1149h-9l-311 -1149h-264zM655 1597q-1 59 29 88t103 29t103 -28t30 -88t-30 -89t-103 -29t-103 30q-30 28 -29 87zM1079 1597q-1 59 29 88t103 29t103 -28t30 -88t-30 -89 t-103 -29t-103 30q-30 28 -29 87z" />
<glyph unicode="&#x1e85;" horiz-adv-x="1677" d="M49 1049h213l221 -885h6l230 885h248l229 -885h6l223 885h203l-301 -1049h-264l-221 852h-6l-222 -852h-264zM520 1326q0 112 121 112q67 0 95 -28t28 -83q0 -113 -122 -113t-122 112zM913 1327q-1 55 27 83t96 28q121 0 121 -112t-122 -112t-122 113z" />
<glyph unicode="&#x1ef2;" horiz-adv-x="1312" d="M33 1356h254l370 -594h9l376 594h236l-520 -785v-571h-205v559zM375 1737h260l178 -287h-176z" />
<glyph unicode="&#x1ef3;" horiz-adv-x="1187" d="M49 1049h217l328 -863h8l328 863h209l-568 -1436h-209l156 387h-55zM326 1495h247l164 -317h-168z" />
<glyph unicode="&#x2000;" horiz-adv-x="925" />
<glyph unicode="&#x2001;" horiz-adv-x="1851" />
<glyph unicode="&#x2002;" horiz-adv-x="925" />
<glyph unicode="&#x2003;" horiz-adv-x="1851" />
<glyph unicode="&#x2004;" horiz-adv-x="617" />
<glyph unicode="&#x2005;" horiz-adv-x="462" />
<glyph unicode="&#x2006;" horiz-adv-x="308" />
<glyph unicode="&#x2007;" horiz-adv-x="308" />
<glyph unicode="&#x2008;" horiz-adv-x="231" />
<glyph unicode="&#x2009;" horiz-adv-x="370" />
<glyph unicode="&#x200a;" horiz-adv-x="102" />
<glyph unicode="&#x2010;" horiz-adv-x="755" d="M125 432v182h506v-182h-506z" />
<glyph unicode="&#x2011;" horiz-adv-x="755" d="M125 432v182h506v-182h-506z" />
<glyph unicode="&#x2012;" horiz-adv-x="755" d="M125 432v182h506v-182h-506z" />
<glyph unicode="&#x2013;" horiz-adv-x="1081" d="M100 442v164h883v-164h-883z" />
<glyph unicode="&#x2014;" horiz-adv-x="2105" d="M100 442v164h1907v-164h-1907z" />
<glyph unicode="&#x2018;" horiz-adv-x="593" d="M168 1032l106 565h148l-33 -565h-221z" />
<glyph unicode="&#x2019;" horiz-adv-x="593" d="M172 1044l33 564h221l-107 -564h-147z" />
<glyph unicode="&#x201a;" horiz-adv-x="593" d="M172 -315l33 565h221l-107 -565h-147z" />
<glyph unicode="&#x201c;" horiz-adv-x="940" d="M168 1032l106 565h148l-33 -565h-221zM514 1032l107 565h147l-33 -565h-221z" />
<glyph unicode="&#x201d;" horiz-adv-x="940" d="M172 1044l33 564h221l-107 -564h-147zM518 1044l33 564h221l-106 -564h-148z" />
<glyph unicode="&#x201e;" horiz-adv-x="940" d="M172 -315l33 565h221l-107 -565h-147zM518 -315l33 565h221l-106 -565h-148z" />
<glyph unicode="&#x2020;" horiz-adv-x="1124" d="M70 838v166h399v454h186v-454h400v-166h-400v-940h-186v940h-399z" />
<glyph unicode="&#x2021;" horiz-adv-x="1124" d="M70 311v166h399v402h-399v165h399v414h186v-414h400v-165h-400v-402h400v-166h-400v-413h-186v413h-399z" />
<glyph unicode="&#x2022;" horiz-adv-x="794" d="M96 677q0 137 66 205t235 68q168 0 235 -68q66 -68 66 -205q0 -138 -66 -206t-235 -68t-235 68t-66 206z" />
<glyph unicode="&#x2026;" horiz-adv-x="2078" d="M152 117q0 67 32 99t113 32q80 0 113 -32q32 -32 32 -98t-32 -99q-32 -31 -112 -31q-81 0 -114 32t-32 97zM893 117q1 67 33 99t113 32t114 -33t33 -99t-33 -97t-114 -31t-113 32t-33 97zM1636 117q0 67 33 99t114 32t113 -32t31 -98q0 -66 -32 -99q-33 -31 -113 -31 t-113 32t-33 97z" />
<glyph unicode="&#x202f;" horiz-adv-x="370" />
<glyph unicode="&#x2030;" horiz-adv-x="2772" d="M152 988q0 181 89 290q89 108 249 108t248 -108q89 -108 89 -290q0 -181 -89 -290q-89 -108 -249 -108q-161 0 -249 108t-88 290zM301 8l1227 1434l112 -94l-1226 -1434zM328 989q0 -125 44 -195t118 -69q74 0 117 69q44 68 44 194t-44 195t-117 69q-74 0 -118 -70 q-44 -68 -44 -193zM1114 368q0 182 89 290t249 108t249 -109t89 -289t-89 -290q-89 -109 -249 -109t-249 109t-89 290zM1290 369q0 -125 44 -195t118 -70t118 69t44 195t-44 194t-117 69q-73 -1 -118 -69t-45 -193zM1946 369q0 181 90 289t249 108t249 -109t89 -289 q0 -180 -90 -290q-89 -109 -249 -109t-249 110t-89 290zM2122 369q0 -125 44 -195t118 -70t118 69t45 195q0 126 -45 194q-46 68 -118 69q-72 -1 -117 -69t-45 -193z" />
<glyph unicode="&#x2039;" horiz-adv-x="841" d="M131 524l457 480l123 -115l-344 -365l344 -364l-123 -115z" />
<glyph unicode="&#x203a;" horiz-adv-x="841" d="M131 160l344 364l-344 365l123 115l457 -480l-457 -479z" />
<glyph unicode="&#x2044;" horiz-adv-x="307" d="M-516 8l1227 1434l112 -94l-1226 -1434z" />
<glyph unicode="&#x205f;" horiz-adv-x="462" />
<glyph unicode="&#x20ac;" horiz-adv-x="1277" d="M49 598v160h162q23 274 196 451t451 177q180 0 350 -57l-22 -168q-174 47 -297 47q-197 0 -320 -118t-143 -332h549v-160h-549q20 -213 143 -331t320 -117q135 0 297 47l22 -168q-166 -59 -350 -60q-283 0 -454 172t-193 457h-162z" />
<glyph unicode="&#x2122;" horiz-adv-x="1413" d="M131 1260v96h467v-96h-170v-445h-125v445h-172zM664 815l28 541h164l117 -332h2l127 332h153l27 -541h-115l-16 379h-2l-109 -305h-137l-108 305h-2l-17 -379h-112z" />
<glyph unicode="&#x2190;" horiz-adv-x="1617" d="M111 719l686 686l131 -131l-459 -459h1038v-190h-1038l459 -461l-131 -131z" />
<glyph unicode="&#x2191;" horiz-adv-x="1591" d="M111 713l686 686l684 -686l-129 -133l-461 460v-1040h-191v1040l-458 -460z" />
<glyph unicode="&#x2192;" horiz-adv-x="1617" d="M111 625v190h1040l-461 459l133 131l684 -686l-684 -686l-133 131l461 461h-1040z" />
<glyph unicode="&#x2193;" horiz-adv-x="1591" d="M111 643l131 133l458 -461v1041h191v-1041l461 461l129 -133l-684 -686z" />
<glyph unicode="&#x2196;" horiz-adv-x="1275" d="M111 205v973h970v-187h-651l737 -735l-135 -135l-735 735v-651h-186z" />
<glyph unicode="&#x2197;" horiz-adv-x="1275" d="M111 256l735 735h-651v187h972v-973h-186v651l-735 -735z" />
<glyph unicode="&#x2198;" horiz-adv-x="1275" d="M111 1102l135 133l735 -735v651h186v-971h-972v185h651z" />
<glyph unicode="&#x2199;" horiz-adv-x="1275" d="M111 180v971h186v-651l735 735l135 -133l-737 -737h651v-185h-970z" />
<glyph unicode="&#x2202;" horiz-adv-x="1255" d="M111 467q0 123 44 218q78 169 273 234q84 27 203 27t223 -41q-160 301 -514 510l182 88q279 -166 451 -431t172 -560q-1 -246 -143 -394t-374 -148t-375 134q-142 136 -142 363zM324 469q0 -162 87 -249t218 -87q182 0 261 170t11 436q-104 53 -274 54q-121 0 -212 -81 t-91 -243z" />
<glyph unicode="&#x220f;" horiz-adv-x="1486" d="M172 0v1356h1143v-1356h-205v1192h-733v-1192h-205z" />
<glyph unicode="&#x2211;" horiz-adv-x="1181" d="M90 0v162l397 516l-397 516v162h1000v-164h-730v-8l377 -490l-399 -522v-8h754v-164h-1002z" />
<glyph unicode="&#x2212;" horiz-adv-x="1280" d="M166 596v164h950v-164h-950z" />
<glyph unicode="&#x221a;" horiz-adv-x="1531" d="M70 889v160h383l338 -863h6l456 1170h209l-540 -1356h-265l-358 889h-229z" />
<glyph unicode="&#x221e;" horiz-adv-x="1632" d="M111 679q0 167 103 263t249 96q199 0 350 -231q154 231 352 231q147 0 251 -96t106 -263q0 -167 -104 -263t-253 -97q-197 0 -352 230q-156 -229 -350 -230q-145 1 -249 97t-103 263zM262 679q0 -95 60 -153t141 -57q133 0 264 209q-139 211 -264 211q-81 1 -141 -57 t-60 -153zM899 678q135 -209 266 -209q82 0 144 57q61 56 61 152t-61 153t-144 58q-123 0 -266 -211z" />
<glyph unicode="&#x222b;" horiz-adv-x="1331" d="M70 -389l22 166q127 -29 209 -29q162 0 217 114q47 97 47 277v768q0 553 451 553q119 0 246 -28l-23 -166q-240 55 -345 0q-94 -50 -118 -205q-10 -63 -10 -156v-770q0 -553 -451 -553q-118 0 -245 29z" />
<glyph unicode="&#x2248;" horiz-adv-x="1280" d="M100 360q111 301 330 302q68 0 134 -37t108 -80q117 -117 190 -117q109 0 203 186l115 -63q-113 -301 -330 -301q-66 0 -132 37t-108 81q-116 119 -192 117q-107 0 -203 -188zM100 805q111 301 330 301q68 0 134 -37t108 -80q117 -117 190 -117q109 0 203 187l115 -64 q-113 -301 -330 -301q-66 0 -132 37t-108 81q-115 118 -192 118q-107 -1 -203 -189z" />
<glyph unicode="&#x2260;" horiz-adv-x="1280" d="M166 381v164h317l154 266h-471v164h565l189 325l120 -67l-149 -258h225v-164h-319l-154 -266h473v-164h-567l-189 -326l-120 68l149 258h-223z" />
<glyph unicode="&#x2264;" horiz-adv-x="1269" d="M160 678v164l882 413l68 -147l-766 -344l766 -340l-68 -158zM166 0v164h950v-164h-950z" />
<glyph unicode="&#x2265;" horiz-adv-x="1269" d="M160 414l766 342l-766 340l67 159l883 -413v-164l-883 -412zM166 0v164h950v-164h-950z" />
<glyph unicode="&#x25ca;" horiz-adv-x="1544" d="M131 678l641 719l643 -719l-643 -719zM350 678q252 -274 422 -473l422 473l-422 473z" />
<glyph unicode="&#x25fc;" horiz-adv-x="1050" d="M0 0v1050h1050v-1050h-1050z" />
<glyph horiz-adv-x="1286" d="M170 1450l182 287h260l-266 -287h-176zM172 0v1356h205v-1356h-205zM565 0l23 166q88 -18 151 -19q170 0 170 181v1028h205v-1012q0 -199 -83 -287t-225 -88t-241 31zM905 1450l182 287h261l-267 -287h-176z" />
<glyph horiz-adv-x="1136" d="M170 1178l164 317h248l-244 -317h-168zM172 0v1049h199v-1049h-199zM524 -393l23 155q127 -25 173 0t46 105v1182h199v-1192q0 -177 -120 -239t-321 -11zM758 1178l164 317h247l-243 -317h-168z" />
<glyph horiz-adv-x="530" d="M131 -373l49 285h219l-116 -285h-152z" />
<glyph horiz-adv-x="569" d="M150 -371l49 283h221l-117 -283h-153z" />
<glyph horiz-adv-x="581" d="M178 1106v399h201l-62 -399h-139z" />
<glyph horiz-adv-x="923" d="M135 1735h207l119 -168l119 168h211l-211 -275h-238z" />
<glyph horiz-adv-x="923" d="M135 1460l207 275h238l211 -275h-211l-119 166l-119 -166h-207z" />
<glyph horiz-adv-x="702" d="M131 1450l182 287h260l-266 -287h-176z" />
<glyph horiz-adv-x="700" d="M131 1737h260l178 -287h-176z" />
<glyph horiz-adv-x="806" d="M127 1505v156h551v-156h-551z" />
<glyph horiz-adv-x="839" d="M127 1735h158q2 -72 38 -112t95 -40t95 40t36 112h162q-2 -141 -83 -216t-210 -75t-209 75t-82 216z" />
<glyph horiz-adv-x="745" d="M131 1580q0 106 67 166t173 60t175 -60q68 -60 68 -166t-68 -165q-70 -59 -176 -59t-172 59t-67 165zM268 1581q0 -104 104 -104t105 103q0 103 -104 103t-105 -102z" />
<glyph horiz-adv-x="866" d="M133 1620q78 80 150 80q73 0 163 -48t144 -48t135 92l8 -174q-79 -78 -149 -78t-166 46t-129 46q-66 0 -146 -92z" />
<glyph horiz-adv-x="542" d="M137 1597q-1 59 29 88t103 29t103 -28t30 -88t-30 -89t-103 -29t-103 30q-30 28 -29 87z" />
<glyph horiz-adv-x="1069" d="M145 1452l170 283h254l-245 -283h-179zM494 1452l168 283h260l-252 -283h-176z" />
<glyph horiz-adv-x="950" d="M131 1597q-1 59 29 88t103 29t103 -28t30 -88t-30 -89t-103 -29t-103 30q-30 28 -29 87zM555 1597q-1 59 29 88t103 29t103 -28t30 -88t-30 -89t-103 -29t-103 30q-30 28 -29 87z" />
</font>
</defs>
</svg>
