<svg id="SvgjsSvg1016" xmlns="http://www.w3.org/2000/svg" version="1.1" xmlns:xlink="http://www.w3.org/1999/xlink" xmlns:svgjs="http://svgjs.com/svgjs" width="10" height="8" viewBox="0 0 10 8"><title>check</title><desc>Created with Avocode.</desc><defs id="SvgjsDefs1017"></defs><path id="SvgjsPath1018" d="M2422.15 533.232L2423.27 534.3539999999999C2423.66 534.7439999999999 2423.66 535.377 2423.27 535.7679999999999C2422.88 536.1579999999999 2422.24 536.1579999999999 2421.85 535.7679999999999L2420.73 534.6469999999999C2420.34 534.256 2420.34 533.6229999999999 2420.73 533.232C2421.12 532.842 2421.76 532.842 2422.15 533.232ZM2422.46 535.121L2428.12 529.4639999999999C2428.5099999999998 529.074 2429.15 529.074 2429.54 529.4639999999999C2429.93 529.8549999999999 2429.93 530.4879999999999 2429.54 530.8789999999999L2423.88 536.536C2423.4900000000002 536.9259999999999 2422.85 536.9259999999999 2422.46 536.536C2422.07 536.145 2422.07 535.512 2422.46 535.121Z " fill="#ffffff" fill-opacity="1" transform="matrix(1,0,0,1,-2420,-529)"></path></svg>