<svg id="SvgjsSvg1008" xmlns="http://www.w3.org/2000/svg" version="1.1" xmlns:xlink="http://www.w3.org/1999/xlink" xmlns:svgjs="http://svgjs.com/svgjs" width="14" height="13" viewBox="0 0 14 13"><title>ico send</title><desc>Created with Avocode.</desc><defs id="SvgjsDefs1009"><linearGradient id="SvgjsLinearGradient1011" gradientUnits="userSpaceOnUse" x1="2663.998104996138" y1="1433.4987181748897" x2="2676.9968750000003" y2="1433.4987181748897"><stop id="SvgjsStop1012" stop-opacity="1" stop-color="#1d2a60" offset="0"></stop><stop id="SvgjsStop1013" stop-opacity="1" stop-color="#1d2a60" offset="0.75"></stop><stop id="SvgjsStop1014" stop-opacity="1" stop-color="#1d2a60" offset="1"></stop></linearGradient></defs><path id="SvgjsPath1010" d="M2676.95 1428.07C2676.8999999999996 1428.01 2676.83 1427.98 2676.7599999999998 1428L2664.1299999999997 1432.04C2664.0599999999995 1432.06 2664.0099999999998 1432.12 2663.9999999999995 1432.2C2663.9899999999993 1432.27 2664.0199999999995 1432.3500000000001 2664.0799999999995 1432.39L2667.1599999999994 1434.7C2667.2199999999993 1434.74 2667.2999999999993 1434.75 2667.359999999999 1434.71L2670.9699999999993 1432.6100000000001L2668.0199999999995 1435.0300000000002C2667.9799999999996 1435.0700000000002 2667.9599999999996 1435.1200000000001 2667.9499999999994 1435.1800000000003L2667.6999999999994 1438.7900000000002C2667.6999999999994 1438.8700000000001 2667.7399999999993 1438.9500000000003 2667.7999999999993 1438.9800000000002C2667.8199999999993 1438.9900000000002 2667.8399999999992 1439.0000000000002 2667.859999999999 1439.0000000000002C2667.9099999999994 1439.0100000000002 2667.959999999999 1439.0000000000002 2668.0099999999993 1438.9600000000003L2670.0899999999992 1437.0200000000002L2672.1199999999994 1438.5000000000002C2672.1599999999994 1438.5400000000002 2672.2199999999993 1438.5500000000002 2672.2699999999995 1438.5300000000002C2672.3199999999997 1438.5200000000002 2672.3699999999994 1438.4800000000002 2672.3899999999994 1438.4300000000003L2676.9799999999996 1428.2800000000002C2677.0099999999998 1428.2100000000003 2676.9999999999995 1428.13 2676.9499999999994 1428.0700000000002Z " fill="url(#SvgjsLinearGradient1011)" transform="matrix(1,0,0,1,-2663,-1427)"></path><path id="SvgjsPath1015" d="M2676.95 1428.07C2676.8999999999996 1428.01 2676.83 1427.98 2676.7599999999998 1428L2664.1299999999997 1432.04C2664.0599999999995 1432.06 2664.0099999999998 1432.12 2663.9999999999995 1432.2C2663.9899999999993 1432.27 2664.0199999999995 1432.3500000000001 2664.0799999999995 1432.39L2667.1599999999994 1434.7C2667.2199999999993 1434.74 2667.2999999999993 1434.75 2667.359999999999 1434.71L2670.9699999999993 1432.6100000000001L2668.0199999999995 1435.0300000000002C2667.9799999999996 1435.0700000000002 2667.9599999999996 1435.1200000000001 2667.9499999999994 1435.1800000000003L2667.6999999999994 1438.7900000000002C2667.6999999999994 1438.8700000000001 2667.7399999999993 1438.9500000000003 2667.7999999999993 1438.9800000000002C2667.8199999999993 1438.9900000000002 2667.8399999999992 1439.0000000000002 2667.859999999999 1439.0000000000002C2667.9099999999994 1439.0100000000002 2667.959999999999 1439.0000000000002 2668.0099999999993 1438.9600000000003L2670.0899999999992 1437.0200000000002L2672.1199999999994 1438.5000000000002C2672.1599999999994 1438.5400000000002 2672.2199999999993 1438.5500000000002 2672.2699999999995 1438.5300000000002C2672.3199999999997 1438.5200000000002 2672.3699999999994 1438.4800000000002 2672.3899999999994 1438.4300000000003L2676.9799999999996 1428.2800000000002C2677.0099999999998 1428.2100000000003 2676.9999999999995 1428.13 2676.9499999999994 1428.0700000000002Z " fill="#1d2a60" fill-opacity="1" transform="matrix(1,0,0,1,-2663,-1427)"></path></svg>